G75*
%MOIN*%
%OFA0B0*%
%FSLAX24Y24*%
%IPPOS*%
%LPD*%
%AMOC8*
5,1,8,0,0,1.08239X$1,22.5*
%
%ADD10R,0.0720X0.0720*%
%ADD11C,0.0720*%
%ADD12OC8,0.0720*%
%ADD13R,0.0474X0.0513*%
%ADD14OC8,0.0640*%
%ADD15C,0.2380*%
%ADD16C,0.0812*%
%ADD17R,0.0434X0.0277*%
%ADD18R,0.0946X0.0316*%
%ADD19R,0.0880X0.0340*%
%ADD20R,0.0198X0.0356*%
%ADD21R,0.0277X0.0434*%
%ADD22R,0.1694X0.0356*%
%ADD23R,0.1694X0.0474*%
D10*
X002901Y019534D03*
X018243Y022153D03*
D11*
X021168Y019534D03*
X021168Y018534D03*
X021168Y017534D03*
X021168Y016534D03*
X021168Y015534D03*
X021168Y014534D03*
X021168Y013534D03*
X021168Y012534D03*
X021168Y011534D03*
X021168Y010534D03*
X021168Y009534D03*
X021168Y008534D03*
X021168Y007534D03*
X021168Y006534D03*
X021168Y005534D03*
X021168Y004534D03*
X002901Y004534D03*
X002901Y005534D03*
X002901Y006534D03*
X002901Y007534D03*
X002901Y008534D03*
X002901Y009534D03*
X002901Y010534D03*
X002901Y011534D03*
X002901Y012534D03*
X002901Y013534D03*
X002901Y014534D03*
X002901Y015534D03*
X002901Y016534D03*
X002901Y017534D03*
X002901Y018534D03*
D12*
X010034Y019968D03*
X010034Y020968D03*
X011034Y020968D03*
X011034Y019968D03*
X012034Y019968D03*
X012034Y020968D03*
X013034Y020968D03*
X014034Y020968D03*
X014034Y019968D03*
X013034Y019968D03*
X017243Y020153D03*
X017243Y021153D03*
X017243Y022153D03*
X018243Y021153D03*
X018243Y020153D03*
D13*
X015458Y012292D03*
X015458Y011623D03*
X012958Y008542D03*
X012958Y007873D03*
X015208Y004292D03*
X015208Y003623D03*
X008458Y009123D03*
X008458Y009792D03*
X008708Y017123D03*
X008708Y017792D03*
D14*
X010958Y017958D03*
X010958Y018958D03*
X012208Y018958D03*
X012208Y017958D03*
D15*
X002389Y002389D03*
X002389Y021680D03*
X021680Y021680D03*
X021680Y002389D03*
D16*
X004958Y002958D03*
X019458Y021458D03*
D17*
X016773Y018430D03*
X016773Y018115D03*
X016773Y017800D03*
X016773Y017485D03*
X016143Y017485D03*
X016143Y017800D03*
X016143Y018115D03*
X016143Y018430D03*
X019143Y014430D03*
X019143Y014115D03*
X019143Y013800D03*
X019143Y013485D03*
X019773Y013485D03*
X019773Y013800D03*
X019773Y014115D03*
X019773Y014430D03*
X019773Y010430D03*
X019773Y010115D03*
X019773Y009800D03*
X019773Y009485D03*
X019143Y009485D03*
X019143Y009800D03*
X019143Y010115D03*
X019143Y010430D03*
X007773Y018235D03*
X007773Y018550D03*
X007773Y018865D03*
X007773Y019180D03*
X007773Y019735D03*
X007773Y020050D03*
X007773Y020365D03*
X007773Y020680D03*
X007773Y021235D03*
X007773Y021550D03*
X007773Y021865D03*
X007773Y022180D03*
X007143Y022180D03*
X007143Y021865D03*
X007143Y021550D03*
X007143Y021235D03*
X007143Y020680D03*
X007143Y020365D03*
X007143Y020050D03*
X007143Y019735D03*
X007143Y019180D03*
X007143Y018865D03*
X007143Y018550D03*
X007143Y018235D03*
X004773Y018115D03*
X004773Y018430D03*
X004143Y018430D03*
X004143Y018115D03*
X004143Y017800D03*
X004143Y017485D03*
X004773Y017485D03*
X004773Y017800D03*
X004773Y014430D03*
X004773Y014115D03*
X004773Y013800D03*
X004773Y013485D03*
X004143Y013485D03*
X004143Y013800D03*
X004143Y014115D03*
X004143Y014430D03*
X004143Y010430D03*
X004143Y010115D03*
X004143Y009800D03*
X004143Y009485D03*
X004773Y009485D03*
X004773Y009800D03*
X004773Y010115D03*
X004773Y010430D03*
X004773Y006430D03*
X004773Y006115D03*
X004773Y005800D03*
X004773Y005485D03*
X004143Y005485D03*
X004143Y005800D03*
X004143Y006115D03*
X004143Y006430D03*
D18*
X010934Y009208D03*
X010934Y009708D03*
X010934Y010208D03*
X010934Y010708D03*
X010934Y011208D03*
X010934Y011708D03*
X010934Y012208D03*
X012981Y012208D03*
X012981Y011708D03*
X012981Y011208D03*
X012981Y010708D03*
X012981Y010208D03*
X012981Y009708D03*
X012981Y009208D03*
D19*
X015248Y008458D03*
X015248Y007958D03*
X015248Y007458D03*
X015248Y006958D03*
X015248Y006458D03*
X015248Y005958D03*
X015248Y005458D03*
X015248Y004958D03*
X017668Y004958D03*
X017668Y005458D03*
X017668Y005958D03*
X017668Y006458D03*
X017668Y006958D03*
X017668Y007458D03*
X017668Y007958D03*
X017668Y008458D03*
X017668Y012958D03*
X017668Y013458D03*
X017668Y013958D03*
X017668Y014458D03*
X017668Y014958D03*
X017668Y015458D03*
X017668Y015958D03*
X017668Y016458D03*
X015248Y016458D03*
X015248Y015958D03*
X015248Y015458D03*
X015248Y014958D03*
X015248Y014458D03*
X015248Y013958D03*
X015248Y013458D03*
X015248Y012958D03*
X008668Y012958D03*
X008668Y013458D03*
X008668Y013958D03*
X008668Y014458D03*
X008668Y014958D03*
X008668Y015458D03*
X008668Y015958D03*
X008668Y016458D03*
X006248Y016458D03*
X006248Y015958D03*
X006248Y015458D03*
X006248Y014958D03*
X006248Y014458D03*
X006248Y013958D03*
X006248Y013458D03*
X006248Y012958D03*
X006248Y008458D03*
X006248Y007958D03*
X006248Y007458D03*
X006248Y006958D03*
X006248Y006458D03*
X006248Y005958D03*
X006248Y005458D03*
X006248Y004958D03*
X008668Y004958D03*
X008668Y005458D03*
X008668Y005958D03*
X008668Y006458D03*
X008668Y006958D03*
X008668Y007458D03*
X008668Y007958D03*
X008668Y008458D03*
D20*
X019202Y007523D03*
X019458Y007523D03*
X019714Y007523D03*
X019714Y006893D03*
X019458Y006893D03*
X019202Y006893D03*
X019202Y005273D03*
X019458Y005273D03*
X019714Y005273D03*
X019714Y004643D03*
X019458Y004643D03*
X019202Y004643D03*
X019202Y016643D03*
X019458Y016643D03*
X019714Y016643D03*
X019714Y017273D03*
X019458Y017273D03*
X019202Y017273D03*
X019202Y018643D03*
X019458Y018643D03*
X019714Y018643D03*
X019714Y019273D03*
X019458Y019273D03*
X019202Y019273D03*
D21*
X018430Y004023D03*
X018115Y004023D03*
X017800Y004023D03*
X017485Y004023D03*
X016930Y004023D03*
X016615Y004023D03*
X016300Y004023D03*
X015985Y004023D03*
X015985Y003393D03*
X016300Y003393D03*
X016615Y003393D03*
X016930Y003393D03*
X017485Y003393D03*
X017800Y003393D03*
X018115Y003393D03*
X018430Y003393D03*
X014430Y003393D03*
X014115Y003393D03*
X013800Y003393D03*
X013485Y003393D03*
X013485Y004023D03*
X013800Y004023D03*
X014115Y004023D03*
X014430Y004023D03*
D22*
X016458Y009367D03*
X016458Y010548D03*
D23*
X016458Y009958D03*
M02*
