G75*
%MOIN*%
%OFA0B0*%
%FSLAX24Y24*%
%IPPOS*%
%LPD*%
%AMOC8*
5,1,8,0,0,1.08239X$1,22.5*
%
%ADD10C,0.0050*%
%ADD11C,0.0080*%
%ADD12C,0.0020*%
%ADD13C,0.0240*%
%ADD14C,0.0060*%
%ADD15R,0.0350X0.0150*%
%ADD16R,0.0350X0.0200*%
%ADD17C,0.0118*%
%ADD18R,0.0150X0.0350*%
%ADD19R,0.0200X0.0350*%
D10*
X000125Y000125D02*
X000125Y023944D01*
X023944Y023944D01*
X023944Y000125D01*
X000125Y000125D01*
X002401Y004034D02*
X002401Y019034D01*
X003401Y019034D01*
X004123Y018607D02*
X004123Y017308D01*
X004792Y017308D01*
X004792Y018607D01*
X004123Y018607D01*
X003401Y020034D02*
X003401Y004034D01*
X002401Y004034D01*
X004123Y005308D02*
X004123Y006607D01*
X004792Y006607D01*
X004792Y005308D01*
X004123Y005308D01*
X004123Y009308D02*
X004123Y010607D01*
X004792Y010607D01*
X004792Y009308D01*
X004123Y009308D01*
X004123Y013308D02*
X004123Y014607D01*
X004792Y014607D01*
X004792Y013308D01*
X004123Y013308D01*
X007123Y018058D02*
X007123Y019357D01*
X007792Y019357D01*
X007792Y018058D01*
X007123Y018058D01*
X007123Y019558D02*
X007123Y020857D01*
X007792Y020857D01*
X007792Y019558D01*
X007123Y019558D01*
X007123Y021058D02*
X007123Y022357D01*
X007792Y022357D01*
X007792Y021058D01*
X007123Y021058D01*
X003401Y020034D02*
X002401Y020034D01*
X002401Y019034D01*
X015847Y010686D02*
X015847Y009229D01*
X017068Y009229D01*
X017068Y010686D01*
X015847Y010686D01*
X019123Y010607D02*
X019123Y009308D01*
X019792Y009308D01*
X019792Y010607D01*
X019123Y010607D01*
X019123Y013308D02*
X019123Y014607D01*
X019792Y014607D01*
X019792Y013308D01*
X019123Y013308D01*
X016792Y017308D02*
X016123Y017308D01*
X016123Y018607D01*
X016792Y018607D01*
X016792Y017308D01*
X020668Y020034D02*
X021668Y020034D01*
X021668Y004034D01*
X020668Y004034D01*
X020668Y020034D01*
X018607Y004042D02*
X017308Y004042D01*
X017308Y003373D01*
X018607Y003373D01*
X018607Y004042D01*
X017107Y004042D02*
X017107Y003373D01*
X015808Y003373D01*
X015808Y004042D01*
X017107Y004042D01*
X014607Y004042D02*
X014607Y003373D01*
X013308Y003373D01*
X013308Y004042D01*
X014607Y004042D01*
D11*
X019064Y004741D02*
X019064Y005174D01*
X019851Y005174D02*
X019851Y004741D01*
X019851Y006991D02*
X019851Y007424D01*
X019064Y007424D02*
X019064Y006991D01*
X021011Y002389D02*
X021013Y002440D01*
X021019Y002491D01*
X021029Y002541D01*
X021042Y002591D01*
X021060Y002639D01*
X021080Y002686D01*
X021105Y002731D01*
X021133Y002774D01*
X021164Y002815D01*
X021198Y002853D01*
X021235Y002888D01*
X021274Y002921D01*
X021316Y002951D01*
X021360Y002977D01*
X021406Y002999D01*
X021454Y003019D01*
X021503Y003034D01*
X021553Y003046D01*
X021603Y003054D01*
X021654Y003058D01*
X021706Y003058D01*
X021757Y003054D01*
X021807Y003046D01*
X021857Y003034D01*
X021906Y003019D01*
X021954Y002999D01*
X022000Y002977D01*
X022044Y002951D01*
X022086Y002921D01*
X022125Y002888D01*
X022162Y002853D01*
X022196Y002815D01*
X022227Y002774D01*
X022255Y002731D01*
X022280Y002686D01*
X022300Y002639D01*
X022318Y002591D01*
X022331Y002541D01*
X022341Y002491D01*
X022347Y002440D01*
X022349Y002389D01*
X022347Y002338D01*
X022341Y002287D01*
X022331Y002237D01*
X022318Y002187D01*
X022300Y002139D01*
X022280Y002092D01*
X022255Y002047D01*
X022227Y002004D01*
X022196Y001963D01*
X022162Y001925D01*
X022125Y001890D01*
X022086Y001857D01*
X022044Y001827D01*
X022000Y001801D01*
X021954Y001779D01*
X021906Y001759D01*
X021857Y001744D01*
X021807Y001732D01*
X021757Y001724D01*
X021706Y001720D01*
X021654Y001720D01*
X021603Y001724D01*
X021553Y001732D01*
X021503Y001744D01*
X021454Y001759D01*
X021406Y001779D01*
X021360Y001801D01*
X021316Y001827D01*
X021274Y001857D01*
X021235Y001890D01*
X021198Y001925D01*
X021164Y001963D01*
X021133Y002004D01*
X021105Y002047D01*
X021080Y002092D01*
X021060Y002139D01*
X021042Y002187D01*
X021029Y002237D01*
X021019Y002287D01*
X021013Y002338D01*
X021011Y002389D01*
X019851Y016741D02*
X019851Y017174D01*
X019064Y017174D02*
X019064Y016741D01*
X019064Y018741D02*
X019064Y019174D01*
X019851Y019174D02*
X019851Y018741D01*
X021011Y021680D02*
X021013Y021731D01*
X021019Y021782D01*
X021029Y021832D01*
X021042Y021882D01*
X021060Y021930D01*
X021080Y021977D01*
X021105Y022022D01*
X021133Y022065D01*
X021164Y022106D01*
X021198Y022144D01*
X021235Y022179D01*
X021274Y022212D01*
X021316Y022242D01*
X021360Y022268D01*
X021406Y022290D01*
X021454Y022310D01*
X021503Y022325D01*
X021553Y022337D01*
X021603Y022345D01*
X021654Y022349D01*
X021706Y022349D01*
X021757Y022345D01*
X021807Y022337D01*
X021857Y022325D01*
X021906Y022310D01*
X021954Y022290D01*
X022000Y022268D01*
X022044Y022242D01*
X022086Y022212D01*
X022125Y022179D01*
X022162Y022144D01*
X022196Y022106D01*
X022227Y022065D01*
X022255Y022022D01*
X022280Y021977D01*
X022300Y021930D01*
X022318Y021882D01*
X022331Y021832D01*
X022341Y021782D01*
X022347Y021731D01*
X022349Y021680D01*
X022347Y021629D01*
X022341Y021578D01*
X022331Y021528D01*
X022318Y021478D01*
X022300Y021430D01*
X022280Y021383D01*
X022255Y021338D01*
X022227Y021295D01*
X022196Y021254D01*
X022162Y021216D01*
X022125Y021181D01*
X022086Y021148D01*
X022044Y021118D01*
X022000Y021092D01*
X021954Y021070D01*
X021906Y021050D01*
X021857Y021035D01*
X021807Y021023D01*
X021757Y021015D01*
X021706Y021011D01*
X021654Y021011D01*
X021603Y021015D01*
X021553Y021023D01*
X021503Y021035D01*
X021454Y021050D01*
X021406Y021070D01*
X021360Y021092D01*
X021316Y021118D01*
X021274Y021148D01*
X021235Y021181D01*
X021198Y021216D01*
X021164Y021254D01*
X021133Y021295D01*
X021105Y021338D01*
X021080Y021383D01*
X021060Y021430D01*
X021042Y021478D01*
X021029Y021528D01*
X021019Y021578D01*
X021013Y021629D01*
X021011Y021680D01*
X021733Y022574D02*
X022193Y022574D01*
X022347Y022728D01*
X022347Y023342D01*
X022193Y023495D01*
X021733Y023495D01*
X021733Y022574D01*
X022654Y022574D02*
X023268Y022574D01*
X022961Y022574D02*
X022961Y023495D01*
X022654Y023188D01*
X001720Y021680D02*
X001722Y021731D01*
X001728Y021782D01*
X001738Y021832D01*
X001751Y021882D01*
X001769Y021930D01*
X001789Y021977D01*
X001814Y022022D01*
X001842Y022065D01*
X001873Y022106D01*
X001907Y022144D01*
X001944Y022179D01*
X001983Y022212D01*
X002025Y022242D01*
X002069Y022268D01*
X002115Y022290D01*
X002163Y022310D01*
X002212Y022325D01*
X002262Y022337D01*
X002312Y022345D01*
X002363Y022349D01*
X002415Y022349D01*
X002466Y022345D01*
X002516Y022337D01*
X002566Y022325D01*
X002615Y022310D01*
X002663Y022290D01*
X002709Y022268D01*
X002753Y022242D01*
X002795Y022212D01*
X002834Y022179D01*
X002871Y022144D01*
X002905Y022106D01*
X002936Y022065D01*
X002964Y022022D01*
X002989Y021977D01*
X003009Y021930D01*
X003027Y021882D01*
X003040Y021832D01*
X003050Y021782D01*
X003056Y021731D01*
X003058Y021680D01*
X003056Y021629D01*
X003050Y021578D01*
X003040Y021528D01*
X003027Y021478D01*
X003009Y021430D01*
X002989Y021383D01*
X002964Y021338D01*
X002936Y021295D01*
X002905Y021254D01*
X002871Y021216D01*
X002834Y021181D01*
X002795Y021148D01*
X002753Y021118D01*
X002709Y021092D01*
X002663Y021070D01*
X002615Y021050D01*
X002566Y021035D01*
X002516Y021023D01*
X002466Y021015D01*
X002415Y021011D01*
X002363Y021011D01*
X002312Y021015D01*
X002262Y021023D01*
X002212Y021035D01*
X002163Y021050D01*
X002115Y021070D01*
X002069Y021092D01*
X002025Y021118D01*
X001983Y021148D01*
X001944Y021181D01*
X001907Y021216D01*
X001873Y021254D01*
X001842Y021295D01*
X001814Y021338D01*
X001789Y021383D01*
X001769Y021430D01*
X001751Y021478D01*
X001738Y021528D01*
X001728Y021578D01*
X001722Y021629D01*
X001720Y021680D01*
X001720Y002389D02*
X001722Y002440D01*
X001728Y002491D01*
X001738Y002541D01*
X001751Y002591D01*
X001769Y002639D01*
X001789Y002686D01*
X001814Y002731D01*
X001842Y002774D01*
X001873Y002815D01*
X001907Y002853D01*
X001944Y002888D01*
X001983Y002921D01*
X002025Y002951D01*
X002069Y002977D01*
X002115Y002999D01*
X002163Y003019D01*
X002212Y003034D01*
X002262Y003046D01*
X002312Y003054D01*
X002363Y003058D01*
X002415Y003058D01*
X002466Y003054D01*
X002516Y003046D01*
X002566Y003034D01*
X002615Y003019D01*
X002663Y002999D01*
X002709Y002977D01*
X002753Y002951D01*
X002795Y002921D01*
X002834Y002888D01*
X002871Y002853D01*
X002905Y002815D01*
X002936Y002774D01*
X002964Y002731D01*
X002989Y002686D01*
X003009Y002639D01*
X003027Y002591D01*
X003040Y002541D01*
X003050Y002491D01*
X003056Y002440D01*
X003058Y002389D01*
X003056Y002338D01*
X003050Y002287D01*
X003040Y002237D01*
X003027Y002187D01*
X003009Y002139D01*
X002989Y002092D01*
X002964Y002047D01*
X002936Y002004D01*
X002905Y001963D01*
X002871Y001925D01*
X002834Y001890D01*
X002795Y001857D01*
X002753Y001827D01*
X002709Y001801D01*
X002663Y001779D01*
X002615Y001759D01*
X002566Y001744D01*
X002516Y001732D01*
X002466Y001724D01*
X002415Y001720D01*
X002363Y001720D01*
X002312Y001724D01*
X002262Y001732D01*
X002212Y001744D01*
X002163Y001759D01*
X002115Y001779D01*
X002069Y001801D01*
X002025Y001827D01*
X001983Y001857D01*
X001944Y001890D01*
X001907Y001925D01*
X001873Y001963D01*
X001842Y002004D01*
X001814Y002047D01*
X001789Y002092D01*
X001769Y002139D01*
X001751Y002187D01*
X001738Y002237D01*
X001728Y002287D01*
X001722Y002338D01*
X001720Y002389D01*
D12*
X003877Y006755D02*
X003877Y006975D01*
X003987Y006975D01*
X004024Y006939D01*
X004024Y006865D01*
X003987Y006828D01*
X003877Y006828D01*
X003951Y006828D02*
X004024Y006755D01*
X004098Y006792D02*
X004135Y006755D01*
X004208Y006755D01*
X004245Y006792D01*
X004245Y006865D01*
X004208Y006902D01*
X004172Y006902D01*
X004098Y006865D01*
X004098Y006975D01*
X004245Y006975D01*
X006828Y008708D02*
X006828Y004708D01*
X007218Y008818D02*
X007291Y008818D01*
X007254Y008818D02*
X007254Y009038D01*
X007218Y009038D02*
X007291Y009038D01*
X007365Y009001D02*
X007365Y008854D01*
X007402Y008818D01*
X007475Y008818D01*
X007512Y008854D01*
X007586Y008818D02*
X007733Y008818D01*
X007659Y008818D02*
X007659Y009038D01*
X007586Y008964D01*
X007512Y009001D02*
X007475Y009038D01*
X007402Y009038D01*
X007365Y009001D01*
X008718Y009354D02*
X008754Y009318D01*
X008828Y009318D01*
X008864Y009354D01*
X008939Y009318D02*
X009085Y009464D01*
X009085Y009501D01*
X009049Y009538D01*
X008975Y009538D01*
X008939Y009501D01*
X008864Y009501D02*
X008828Y009538D01*
X008754Y009538D01*
X008718Y009501D01*
X008718Y009354D01*
X008939Y009318D02*
X009085Y009318D01*
X012226Y008161D02*
X012226Y008014D01*
X012262Y007978D01*
X012336Y007978D01*
X012372Y008014D01*
X012447Y008014D02*
X012483Y007978D01*
X012557Y007978D01*
X012593Y008014D01*
X012593Y008088D01*
X012557Y008124D01*
X012520Y008124D01*
X012447Y008088D01*
X012447Y008198D01*
X012593Y008198D01*
X012372Y008161D02*
X012336Y008198D01*
X012262Y008198D01*
X012226Y008161D01*
X014762Y011828D02*
X014836Y011828D01*
X014872Y011864D01*
X014947Y011864D02*
X014983Y011828D01*
X015057Y011828D01*
X015093Y011864D01*
X015093Y011901D01*
X015057Y011938D01*
X015020Y011938D01*
X015057Y011938D02*
X015093Y011974D01*
X015093Y012011D01*
X015057Y012048D01*
X014983Y012048D01*
X014947Y012011D01*
X014872Y012011D02*
X014836Y012048D01*
X014762Y012048D01*
X014726Y012011D01*
X014726Y011864D01*
X014762Y011828D01*
X016224Y011017D02*
X016224Y010870D01*
X016261Y010833D01*
X016334Y010833D01*
X016371Y010870D01*
X016371Y011017D01*
X016334Y011054D01*
X016261Y011054D01*
X016224Y011017D01*
X016297Y010907D02*
X016371Y010833D01*
X016445Y010870D02*
X016482Y010833D01*
X016555Y010833D01*
X016592Y010870D01*
X016592Y010944D01*
X016555Y010980D01*
X016518Y010980D01*
X016445Y010944D01*
X016445Y011054D01*
X016592Y011054D01*
X017088Y012708D02*
X017088Y016708D01*
X016733Y016868D02*
X016586Y016868D01*
X016733Y017014D01*
X016733Y017051D01*
X016696Y017088D01*
X016623Y017088D01*
X016586Y017051D01*
X016512Y017051D02*
X016475Y017088D01*
X016402Y017088D01*
X016365Y017051D01*
X016365Y016904D01*
X016402Y016868D01*
X016475Y016868D01*
X016512Y016904D01*
X016291Y016868D02*
X016218Y016868D01*
X016254Y016868D02*
X016254Y017088D01*
X016218Y017088D02*
X016291Y017088D01*
X016319Y018755D02*
X016466Y018902D01*
X016466Y018939D01*
X016429Y018975D01*
X016356Y018975D01*
X016319Y018939D01*
X016172Y018975D02*
X016172Y018755D01*
X016245Y018755D02*
X016098Y018755D01*
X016024Y018755D02*
X015951Y018828D01*
X015987Y018828D02*
X015877Y018828D01*
X015877Y018755D02*
X015877Y018975D01*
X015987Y018975D01*
X016024Y018939D01*
X016024Y018865D01*
X015987Y018828D01*
X016098Y018902D02*
X016172Y018975D01*
X016319Y018755D02*
X016466Y018755D01*
X019035Y019575D02*
X019071Y019539D01*
X019145Y019539D01*
X019181Y019575D01*
X019181Y019722D01*
X019145Y019759D01*
X019071Y019759D01*
X019035Y019722D01*
X019035Y019575D01*
X019108Y019612D02*
X019181Y019539D01*
X019256Y019649D02*
X019402Y019649D01*
X019366Y019759D02*
X019256Y019649D01*
X019366Y019539D02*
X019366Y019759D01*
X019366Y017759D02*
X019402Y017722D01*
X019402Y017685D01*
X019366Y017649D01*
X019402Y017612D01*
X019402Y017575D01*
X019366Y017539D01*
X019292Y017539D01*
X019256Y017575D01*
X019181Y017575D02*
X019145Y017539D01*
X019071Y017539D01*
X019035Y017575D01*
X019035Y017722D01*
X019071Y017759D01*
X019145Y017759D01*
X019181Y017722D01*
X019181Y017575D01*
X019181Y017539D02*
X019108Y017612D01*
X019256Y017722D02*
X019292Y017759D01*
X019366Y017759D01*
X019366Y017649D02*
X019329Y017649D01*
X019616Y013160D02*
X019726Y013160D01*
X019763Y013124D01*
X019763Y013050D01*
X019726Y013014D01*
X019616Y013014D01*
X019690Y013014D02*
X019763Y012940D01*
X019837Y012940D02*
X019837Y012977D01*
X019984Y013124D01*
X019984Y013160D01*
X019837Y013160D01*
X019616Y013160D02*
X019616Y012940D01*
X019616Y009160D02*
X019726Y009160D01*
X019763Y009124D01*
X019763Y009050D01*
X019726Y009014D01*
X019616Y009014D01*
X019690Y009014D02*
X019763Y008940D01*
X019837Y008977D02*
X019874Y008940D01*
X019947Y008940D01*
X019984Y008977D01*
X019984Y009014D01*
X019947Y009050D01*
X019837Y009050D01*
X019837Y008977D01*
X019837Y009050D02*
X019911Y009124D01*
X019984Y009160D01*
X019616Y009160D02*
X019616Y008940D01*
X019366Y008009D02*
X019292Y008009D01*
X019256Y007972D01*
X019181Y007972D02*
X019181Y007825D01*
X019145Y007789D01*
X019071Y007789D01*
X019035Y007825D01*
X019035Y007972D01*
X019071Y008009D01*
X019145Y008009D01*
X019181Y007972D01*
X019108Y007862D02*
X019181Y007789D01*
X019256Y007789D02*
X019402Y007935D01*
X019402Y007972D01*
X019366Y008009D01*
X019402Y007789D02*
X019256Y007789D01*
X017996Y008868D02*
X017996Y009088D01*
X017886Y008978D01*
X018033Y008978D01*
X017812Y009051D02*
X017775Y009088D01*
X017702Y009088D01*
X017665Y009051D01*
X017665Y008904D01*
X017702Y008868D01*
X017775Y008868D01*
X017812Y008904D01*
X017591Y008868D02*
X017518Y008868D01*
X017554Y008868D02*
X017554Y009088D01*
X017518Y009088D02*
X017591Y009088D01*
X017088Y008708D02*
X017088Y004708D01*
X016861Y003060D02*
X016861Y002840D01*
X016934Y002840D02*
X016787Y002840D01*
X016713Y002840D02*
X016640Y002914D01*
X016676Y002914D02*
X016566Y002914D01*
X016566Y002840D02*
X016566Y003060D01*
X016676Y003060D01*
X016713Y003024D01*
X016713Y002950D01*
X016676Y002914D01*
X016787Y002987D02*
X016861Y003060D01*
X018066Y003060D02*
X018066Y002840D01*
X018066Y002914D02*
X018176Y002914D01*
X018213Y002950D01*
X018213Y003024D01*
X018176Y003060D01*
X018066Y003060D01*
X018140Y002914D02*
X018213Y002840D01*
X018287Y002840D02*
X018434Y002987D01*
X018434Y003024D01*
X018397Y003060D01*
X018324Y003060D01*
X018287Y003024D01*
X018287Y002840D02*
X018434Y002840D01*
X019071Y005539D02*
X019035Y005575D01*
X019035Y005722D01*
X019071Y005759D01*
X019145Y005759D01*
X019181Y005722D01*
X019181Y005575D01*
X019145Y005539D01*
X019071Y005539D01*
X019108Y005612D02*
X019181Y005539D01*
X019256Y005539D02*
X019402Y005539D01*
X019329Y005539D02*
X019329Y005759D01*
X019256Y005685D01*
X015299Y003238D02*
X015299Y003018D01*
X015335Y003128D02*
X015189Y003128D01*
X015299Y003238D01*
X015114Y003201D02*
X015078Y003238D01*
X015004Y003238D01*
X014968Y003201D01*
X014968Y003054D01*
X015004Y003018D01*
X015078Y003018D01*
X015114Y003054D01*
X013929Y004355D02*
X013856Y004355D01*
X013819Y004392D01*
X013745Y004355D02*
X013598Y004355D01*
X013672Y004355D02*
X013672Y004575D01*
X013598Y004502D01*
X013524Y004539D02*
X013524Y004465D01*
X013487Y004428D01*
X013377Y004428D01*
X013377Y004355D02*
X013377Y004575D01*
X013487Y004575D01*
X013524Y004539D01*
X013451Y004428D02*
X013524Y004355D01*
X013819Y004539D02*
X013856Y004575D01*
X013929Y004575D01*
X013966Y004539D01*
X013966Y004502D01*
X013929Y004465D01*
X013966Y004428D01*
X013966Y004392D01*
X013929Y004355D01*
X013929Y004465D02*
X013892Y004465D01*
X012135Y012568D02*
X011989Y012568D01*
X012062Y012568D02*
X012062Y012788D01*
X011989Y012714D01*
X011914Y012788D02*
X011914Y012604D01*
X011878Y012568D01*
X011804Y012568D01*
X011768Y012604D01*
X011768Y012788D01*
X008393Y017228D02*
X008247Y017228D01*
X008320Y017228D02*
X008320Y017448D01*
X008247Y017374D01*
X008172Y017411D02*
X008136Y017448D01*
X008062Y017448D01*
X008026Y017411D01*
X008026Y017264D01*
X008062Y017228D01*
X008136Y017228D01*
X008172Y017264D01*
X007683Y017001D02*
X007683Y016964D01*
X007646Y016928D01*
X007683Y016891D01*
X007683Y016854D01*
X007646Y016818D01*
X007573Y016818D01*
X007536Y016854D01*
X007462Y016854D02*
X007425Y016818D01*
X007352Y016818D01*
X007315Y016854D01*
X007315Y017001D01*
X007352Y017038D01*
X007425Y017038D01*
X007462Y017001D01*
X007536Y017001D02*
X007573Y017038D01*
X007646Y017038D01*
X007683Y017001D01*
X007646Y016928D02*
X007609Y016928D01*
X007241Y017038D02*
X007168Y017038D01*
X007204Y017038D02*
X007204Y016818D01*
X007168Y016818D02*
X007241Y016818D01*
X006828Y016708D02*
X006828Y012708D01*
X004208Y010975D02*
X004098Y010865D01*
X004245Y010865D01*
X004208Y010755D02*
X004208Y010975D01*
X004024Y010939D02*
X004024Y010865D01*
X003987Y010828D01*
X003877Y010828D01*
X003877Y010755D02*
X003877Y010975D01*
X003987Y010975D01*
X004024Y010939D01*
X003951Y010828D02*
X004024Y010755D01*
X004024Y014755D02*
X003951Y014828D01*
X003987Y014828D02*
X003877Y014828D01*
X003877Y014755D02*
X003877Y014975D01*
X003987Y014975D01*
X004024Y014939D01*
X004024Y014865D01*
X003987Y014828D01*
X004098Y014792D02*
X004135Y014755D01*
X004208Y014755D01*
X004245Y014792D01*
X004245Y014939D01*
X004208Y014975D01*
X004135Y014975D01*
X004098Y014939D01*
X004098Y014902D01*
X004135Y014865D01*
X004245Y014865D01*
X007145Y017690D02*
X007145Y017910D01*
X007255Y017910D01*
X007292Y017874D01*
X007292Y017800D01*
X007255Y017764D01*
X007145Y017764D01*
X007219Y017764D02*
X007292Y017690D01*
X007366Y017690D02*
X007513Y017690D01*
X007440Y017690D02*
X007440Y017910D01*
X007366Y017837D01*
X007587Y017800D02*
X007734Y017800D01*
X007697Y017690D02*
X007697Y017910D01*
X007587Y017800D01*
X006860Y019927D02*
X006640Y019927D01*
X006640Y020037D01*
X006677Y020074D01*
X006750Y020074D01*
X006787Y020037D01*
X006787Y019927D01*
X006787Y020001D02*
X006860Y020074D01*
X006860Y020148D02*
X006860Y020295D01*
X006860Y020222D02*
X006640Y020222D01*
X006713Y020148D01*
X006750Y020369D02*
X006640Y020369D01*
X006640Y020516D01*
X006713Y020479D02*
X006750Y020516D01*
X006824Y020516D01*
X006860Y020479D01*
X006860Y020406D01*
X006824Y020369D01*
X006750Y020369D02*
X006713Y020442D01*
X006713Y020479D01*
X007127Y022505D02*
X007127Y022725D01*
X007237Y022725D01*
X007274Y022689D01*
X007274Y022615D01*
X007237Y022578D01*
X007127Y022578D01*
X007201Y022578D02*
X007274Y022505D01*
X007348Y022542D02*
X007385Y022505D01*
X007458Y022505D01*
X007495Y022542D01*
X007495Y022578D01*
X007458Y022615D01*
X007422Y022615D01*
X007458Y022615D02*
X007495Y022652D01*
X007495Y022689D01*
X007458Y022725D01*
X007385Y022725D01*
X007348Y022689D01*
X004208Y018975D02*
X004245Y018939D01*
X004245Y018902D01*
X004208Y018865D01*
X004135Y018865D01*
X004098Y018902D01*
X004098Y018939D01*
X004135Y018975D01*
X004208Y018975D01*
X004208Y018865D02*
X004245Y018828D01*
X004245Y018792D01*
X004208Y018755D01*
X004135Y018755D01*
X004098Y018792D01*
X004098Y018828D01*
X004135Y018865D01*
X004024Y018865D02*
X003987Y018828D01*
X003877Y018828D01*
X003877Y018755D02*
X003877Y018975D01*
X003987Y018975D01*
X004024Y018939D01*
X004024Y018865D01*
X003951Y018828D02*
X004024Y018755D01*
X010098Y018688D02*
X010098Y018468D01*
X010098Y018541D02*
X010208Y018541D01*
X010244Y018578D01*
X010244Y018651D01*
X010208Y018688D01*
X010098Y018688D01*
X010171Y018541D02*
X010244Y018468D01*
X010319Y018468D02*
X010465Y018468D01*
X010392Y018468D02*
X010392Y018688D01*
X010319Y018614D01*
X010540Y018614D02*
X010613Y018688D01*
X010613Y018468D01*
X010540Y018468D02*
X010686Y018468D01*
X011275Y018478D02*
X011275Y018698D01*
X011385Y018698D01*
X011422Y018661D01*
X011422Y018588D01*
X011385Y018551D01*
X011275Y018551D01*
X011348Y018551D02*
X011422Y018478D01*
X011496Y018478D02*
X011642Y018478D01*
X011569Y018478D02*
X011569Y018698D01*
X011496Y018624D01*
X011717Y018661D02*
X011717Y018514D01*
X011863Y018661D01*
X011863Y018514D01*
X011827Y018478D01*
X011753Y018478D01*
X011717Y018514D01*
X011717Y018661D02*
X011753Y018698D01*
X011827Y018698D01*
X011863Y018661D01*
D13*
X012208Y018558D02*
X012208Y018358D01*
X010958Y018358D02*
X010958Y018558D01*
D14*
X010458Y017958D02*
X010460Y018002D01*
X010466Y018046D01*
X010476Y018089D01*
X010489Y018131D01*
X010506Y018172D01*
X010527Y018211D01*
X010551Y018248D01*
X010578Y018283D01*
X010608Y018315D01*
X010641Y018345D01*
X010677Y018371D01*
X010714Y018395D01*
X010754Y018414D01*
X010795Y018431D01*
X010838Y018443D01*
X010881Y018452D01*
X010925Y018457D01*
X010969Y018458D01*
X011013Y018455D01*
X011057Y018448D01*
X011100Y018437D01*
X011142Y018423D01*
X011182Y018405D01*
X011221Y018383D01*
X011257Y018359D01*
X011291Y018331D01*
X011323Y018300D01*
X011352Y018266D01*
X011378Y018230D01*
X011400Y018192D01*
X011419Y018152D01*
X011434Y018110D01*
X011446Y018068D01*
X011454Y018024D01*
X011458Y017980D01*
X011458Y017936D01*
X011454Y017892D01*
X011446Y017848D01*
X011434Y017806D01*
X011419Y017764D01*
X011400Y017724D01*
X011378Y017686D01*
X011352Y017650D01*
X011323Y017616D01*
X011291Y017585D01*
X011257Y017557D01*
X011221Y017533D01*
X011182Y017511D01*
X011142Y017493D01*
X011100Y017479D01*
X011057Y017468D01*
X011013Y017461D01*
X010969Y017458D01*
X010925Y017459D01*
X010881Y017464D01*
X010838Y017473D01*
X010795Y017485D01*
X010754Y017502D01*
X010714Y017521D01*
X010677Y017545D01*
X010641Y017571D01*
X010608Y017601D01*
X010578Y017633D01*
X010551Y017668D01*
X010527Y017705D01*
X010506Y017744D01*
X010489Y017785D01*
X010476Y017827D01*
X010466Y017870D01*
X010460Y017914D01*
X010458Y017958D01*
X011708Y017958D02*
X011710Y018002D01*
X011716Y018046D01*
X011726Y018089D01*
X011739Y018131D01*
X011756Y018172D01*
X011777Y018211D01*
X011801Y018248D01*
X011828Y018283D01*
X011858Y018315D01*
X011891Y018345D01*
X011927Y018371D01*
X011964Y018395D01*
X012004Y018414D01*
X012045Y018431D01*
X012088Y018443D01*
X012131Y018452D01*
X012175Y018457D01*
X012219Y018458D01*
X012263Y018455D01*
X012307Y018448D01*
X012350Y018437D01*
X012392Y018423D01*
X012432Y018405D01*
X012471Y018383D01*
X012507Y018359D01*
X012541Y018331D01*
X012573Y018300D01*
X012602Y018266D01*
X012628Y018230D01*
X012650Y018192D01*
X012669Y018152D01*
X012684Y018110D01*
X012696Y018068D01*
X012704Y018024D01*
X012708Y017980D01*
X012708Y017936D01*
X012704Y017892D01*
X012696Y017848D01*
X012684Y017806D01*
X012669Y017764D01*
X012650Y017724D01*
X012628Y017686D01*
X012602Y017650D01*
X012573Y017616D01*
X012541Y017585D01*
X012507Y017557D01*
X012471Y017533D01*
X012432Y017511D01*
X012392Y017493D01*
X012350Y017479D01*
X012307Y017468D01*
X012263Y017461D01*
X012219Y017458D01*
X012175Y017459D01*
X012131Y017464D01*
X012088Y017473D01*
X012045Y017485D01*
X012004Y017502D01*
X011964Y017521D01*
X011927Y017545D01*
X011891Y017571D01*
X011858Y017601D01*
X011828Y017633D01*
X011801Y017668D01*
X011777Y017705D01*
X011756Y017744D01*
X011739Y017785D01*
X011726Y017827D01*
X011716Y017870D01*
X011710Y017914D01*
X011708Y017958D01*
X008228Y016558D02*
X008228Y012858D01*
X008226Y012835D01*
X008221Y012812D01*
X008212Y012790D01*
X008199Y012770D01*
X008184Y012752D01*
X008166Y012737D01*
X008146Y012724D01*
X008124Y012715D01*
X008101Y012710D01*
X008078Y012708D01*
X006838Y012708D01*
X006815Y012710D01*
X006792Y012715D01*
X006770Y012724D01*
X006750Y012737D01*
X006732Y012752D01*
X006717Y012770D01*
X006704Y012790D01*
X006695Y012812D01*
X006690Y012835D01*
X006688Y012858D01*
X006688Y016558D01*
X006690Y016581D01*
X006695Y016604D01*
X006704Y016626D01*
X006717Y016646D01*
X006732Y016664D01*
X006750Y016679D01*
X006770Y016692D01*
X006792Y016701D01*
X006815Y016706D01*
X006838Y016708D01*
X007258Y016708D01*
X007658Y016708D01*
X008078Y016708D01*
X008101Y016706D01*
X008124Y016701D01*
X008146Y016692D01*
X008166Y016679D01*
X008184Y016664D01*
X008199Y016646D01*
X008212Y016626D01*
X008221Y016604D01*
X008226Y016581D01*
X008228Y016558D01*
X007658Y016708D02*
X007656Y016681D01*
X007651Y016654D01*
X007641Y016628D01*
X007629Y016604D01*
X007613Y016582D01*
X007595Y016562D01*
X007573Y016545D01*
X007550Y016530D01*
X007525Y016520D01*
X007499Y016512D01*
X007472Y016508D01*
X007444Y016508D01*
X007417Y016512D01*
X007391Y016520D01*
X007366Y016530D01*
X007343Y016545D01*
X007321Y016562D01*
X007303Y016582D01*
X007287Y016604D01*
X007275Y016628D01*
X007265Y016654D01*
X007260Y016681D01*
X007258Y016708D01*
X001039Y021680D02*
X001041Y021753D01*
X001047Y021826D01*
X001057Y021898D01*
X001071Y021970D01*
X001088Y022041D01*
X001110Y022111D01*
X001135Y022180D01*
X001164Y022247D01*
X001196Y022312D01*
X001232Y022376D01*
X001272Y022438D01*
X001314Y022497D01*
X001360Y022554D01*
X001409Y022608D01*
X001461Y022660D01*
X001515Y022709D01*
X001572Y022755D01*
X001631Y022797D01*
X001693Y022837D01*
X001757Y022873D01*
X001822Y022905D01*
X001889Y022934D01*
X001958Y022959D01*
X002028Y022981D01*
X002099Y022998D01*
X002171Y023012D01*
X002243Y023022D01*
X002316Y023028D01*
X002389Y023030D01*
X002462Y023028D01*
X002535Y023022D01*
X002607Y023012D01*
X002679Y022998D01*
X002750Y022981D01*
X002820Y022959D01*
X002889Y022934D01*
X002956Y022905D01*
X003021Y022873D01*
X003085Y022837D01*
X003147Y022797D01*
X003206Y022755D01*
X003263Y022709D01*
X003317Y022660D01*
X003369Y022608D01*
X003418Y022554D01*
X003464Y022497D01*
X003506Y022438D01*
X003546Y022376D01*
X003582Y022312D01*
X003614Y022247D01*
X003643Y022180D01*
X003668Y022111D01*
X003690Y022041D01*
X003707Y021970D01*
X003721Y021898D01*
X003731Y021826D01*
X003737Y021753D01*
X003739Y021680D01*
X003737Y021607D01*
X003731Y021534D01*
X003721Y021462D01*
X003707Y021390D01*
X003690Y021319D01*
X003668Y021249D01*
X003643Y021180D01*
X003614Y021113D01*
X003582Y021048D01*
X003546Y020984D01*
X003506Y020922D01*
X003464Y020863D01*
X003418Y020806D01*
X003369Y020752D01*
X003317Y020700D01*
X003263Y020651D01*
X003206Y020605D01*
X003147Y020563D01*
X003085Y020523D01*
X003021Y020487D01*
X002956Y020455D01*
X002889Y020426D01*
X002820Y020401D01*
X002750Y020379D01*
X002679Y020362D01*
X002607Y020348D01*
X002535Y020338D01*
X002462Y020332D01*
X002389Y020330D01*
X002316Y020332D01*
X002243Y020338D01*
X002171Y020348D01*
X002099Y020362D01*
X002028Y020379D01*
X001958Y020401D01*
X001889Y020426D01*
X001822Y020455D01*
X001757Y020487D01*
X001693Y020523D01*
X001631Y020563D01*
X001572Y020605D01*
X001515Y020651D01*
X001461Y020700D01*
X001409Y020752D01*
X001360Y020806D01*
X001314Y020863D01*
X001272Y020922D01*
X001232Y020984D01*
X001196Y021048D01*
X001164Y021113D01*
X001135Y021180D01*
X001110Y021249D01*
X001088Y021319D01*
X001071Y021390D01*
X001057Y021462D01*
X001047Y021534D01*
X001041Y021607D01*
X001039Y021680D01*
X006838Y008708D02*
X007258Y008708D01*
X007658Y008708D01*
X008078Y008708D01*
X008101Y008706D01*
X008124Y008701D01*
X008146Y008692D01*
X008166Y008679D01*
X008184Y008664D01*
X008199Y008646D01*
X008212Y008626D01*
X008221Y008604D01*
X008226Y008581D01*
X008228Y008558D01*
X008228Y004858D01*
X008226Y004835D01*
X008221Y004812D01*
X008212Y004790D01*
X008199Y004770D01*
X008184Y004752D01*
X008166Y004737D01*
X008146Y004724D01*
X008124Y004715D01*
X008101Y004710D01*
X008078Y004708D01*
X006838Y004708D01*
X006815Y004710D01*
X006792Y004715D01*
X006770Y004724D01*
X006750Y004737D01*
X006732Y004752D01*
X006717Y004770D01*
X006704Y004790D01*
X006695Y004812D01*
X006690Y004835D01*
X006688Y004858D01*
X006688Y008558D01*
X006690Y008581D01*
X006695Y008604D01*
X006704Y008626D01*
X006717Y008646D01*
X006732Y008664D01*
X006750Y008679D01*
X006770Y008692D01*
X006792Y008701D01*
X006815Y008706D01*
X006838Y008708D01*
X007258Y008708D02*
X007260Y008681D01*
X007265Y008654D01*
X007275Y008628D01*
X007287Y008604D01*
X007303Y008582D01*
X007321Y008562D01*
X007343Y008545D01*
X007366Y008530D01*
X007391Y008520D01*
X007417Y008512D01*
X007444Y008508D01*
X007472Y008508D01*
X007499Y008512D01*
X007525Y008520D01*
X007550Y008530D01*
X007573Y008545D01*
X007595Y008562D01*
X007613Y008582D01*
X007629Y008604D01*
X007641Y008628D01*
X007651Y008654D01*
X007656Y008681D01*
X007658Y008708D01*
X001039Y002389D02*
X001041Y002462D01*
X001047Y002535D01*
X001057Y002607D01*
X001071Y002679D01*
X001088Y002750D01*
X001110Y002820D01*
X001135Y002889D01*
X001164Y002956D01*
X001196Y003021D01*
X001232Y003085D01*
X001272Y003147D01*
X001314Y003206D01*
X001360Y003263D01*
X001409Y003317D01*
X001461Y003369D01*
X001515Y003418D01*
X001572Y003464D01*
X001631Y003506D01*
X001693Y003546D01*
X001757Y003582D01*
X001822Y003614D01*
X001889Y003643D01*
X001958Y003668D01*
X002028Y003690D01*
X002099Y003707D01*
X002171Y003721D01*
X002243Y003731D01*
X002316Y003737D01*
X002389Y003739D01*
X002462Y003737D01*
X002535Y003731D01*
X002607Y003721D01*
X002679Y003707D01*
X002750Y003690D01*
X002820Y003668D01*
X002889Y003643D01*
X002956Y003614D01*
X003021Y003582D01*
X003085Y003546D01*
X003147Y003506D01*
X003206Y003464D01*
X003263Y003418D01*
X003317Y003369D01*
X003369Y003317D01*
X003418Y003263D01*
X003464Y003206D01*
X003506Y003147D01*
X003546Y003085D01*
X003582Y003021D01*
X003614Y002956D01*
X003643Y002889D01*
X003668Y002820D01*
X003690Y002750D01*
X003707Y002679D01*
X003721Y002607D01*
X003731Y002535D01*
X003737Y002462D01*
X003739Y002389D01*
X003737Y002316D01*
X003731Y002243D01*
X003721Y002171D01*
X003707Y002099D01*
X003690Y002028D01*
X003668Y001958D01*
X003643Y001889D01*
X003614Y001822D01*
X003582Y001757D01*
X003546Y001693D01*
X003506Y001631D01*
X003464Y001572D01*
X003418Y001515D01*
X003369Y001461D01*
X003317Y001409D01*
X003263Y001360D01*
X003206Y001314D01*
X003147Y001272D01*
X003085Y001232D01*
X003021Y001196D01*
X002956Y001164D01*
X002889Y001135D01*
X002820Y001110D01*
X002750Y001088D01*
X002679Y001071D01*
X002607Y001057D01*
X002535Y001047D01*
X002462Y001041D01*
X002389Y001039D01*
X002316Y001041D01*
X002243Y001047D01*
X002171Y001057D01*
X002099Y001071D01*
X002028Y001088D01*
X001958Y001110D01*
X001889Y001135D01*
X001822Y001164D01*
X001757Y001196D01*
X001693Y001232D01*
X001631Y001272D01*
X001572Y001314D01*
X001515Y001360D01*
X001461Y001409D01*
X001409Y001461D01*
X001360Y001515D01*
X001314Y001572D01*
X001272Y001631D01*
X001232Y001693D01*
X001196Y001757D01*
X001164Y001822D01*
X001135Y001889D01*
X001110Y001958D01*
X001088Y002028D01*
X001071Y002099D01*
X001057Y002171D01*
X001047Y002243D01*
X001041Y002316D01*
X001039Y002389D01*
X015688Y004858D02*
X015688Y008558D01*
X015690Y008581D01*
X015695Y008604D01*
X015704Y008626D01*
X015717Y008646D01*
X015732Y008664D01*
X015750Y008679D01*
X015770Y008692D01*
X015792Y008701D01*
X015815Y008706D01*
X015838Y008708D01*
X017078Y008708D01*
X017101Y008706D01*
X017124Y008701D01*
X017146Y008692D01*
X017166Y008679D01*
X017184Y008664D01*
X017199Y008646D01*
X017212Y008626D01*
X017221Y008604D01*
X017226Y008581D01*
X017228Y008558D01*
X017228Y004858D01*
X017226Y004835D01*
X017221Y004812D01*
X017212Y004790D01*
X017199Y004770D01*
X017184Y004752D01*
X017166Y004737D01*
X017146Y004724D01*
X017124Y004715D01*
X017101Y004710D01*
X017078Y004708D01*
X016658Y004708D01*
X016258Y004708D01*
X015838Y004708D01*
X015815Y004710D01*
X015792Y004715D01*
X015770Y004724D01*
X015750Y004737D01*
X015732Y004752D01*
X015717Y004770D01*
X015704Y004790D01*
X015695Y004812D01*
X015690Y004835D01*
X015688Y004858D01*
X016258Y004708D02*
X016260Y004735D01*
X016265Y004762D01*
X016275Y004788D01*
X016287Y004812D01*
X016303Y004834D01*
X016321Y004854D01*
X016343Y004871D01*
X016366Y004886D01*
X016391Y004896D01*
X016417Y004904D01*
X016444Y004908D01*
X016472Y004908D01*
X016499Y004904D01*
X016525Y004896D01*
X016550Y004886D01*
X016573Y004871D01*
X016595Y004854D01*
X016613Y004834D01*
X016629Y004812D01*
X016641Y004788D01*
X016651Y004762D01*
X016656Y004735D01*
X016658Y004708D01*
X020330Y002389D02*
X020332Y002462D01*
X020338Y002535D01*
X020348Y002607D01*
X020362Y002679D01*
X020379Y002750D01*
X020401Y002820D01*
X020426Y002889D01*
X020455Y002956D01*
X020487Y003021D01*
X020523Y003085D01*
X020563Y003147D01*
X020605Y003206D01*
X020651Y003263D01*
X020700Y003317D01*
X020752Y003369D01*
X020806Y003418D01*
X020863Y003464D01*
X020922Y003506D01*
X020984Y003546D01*
X021048Y003582D01*
X021113Y003614D01*
X021180Y003643D01*
X021249Y003668D01*
X021319Y003690D01*
X021390Y003707D01*
X021462Y003721D01*
X021534Y003731D01*
X021607Y003737D01*
X021680Y003739D01*
X021753Y003737D01*
X021826Y003731D01*
X021898Y003721D01*
X021970Y003707D01*
X022041Y003690D01*
X022111Y003668D01*
X022180Y003643D01*
X022247Y003614D01*
X022312Y003582D01*
X022376Y003546D01*
X022438Y003506D01*
X022497Y003464D01*
X022554Y003418D01*
X022608Y003369D01*
X022660Y003317D01*
X022709Y003263D01*
X022755Y003206D01*
X022797Y003147D01*
X022837Y003085D01*
X022873Y003021D01*
X022905Y002956D01*
X022934Y002889D01*
X022959Y002820D01*
X022981Y002750D01*
X022998Y002679D01*
X023012Y002607D01*
X023022Y002535D01*
X023028Y002462D01*
X023030Y002389D01*
X023028Y002316D01*
X023022Y002243D01*
X023012Y002171D01*
X022998Y002099D01*
X022981Y002028D01*
X022959Y001958D01*
X022934Y001889D01*
X022905Y001822D01*
X022873Y001757D01*
X022837Y001693D01*
X022797Y001631D01*
X022755Y001572D01*
X022709Y001515D01*
X022660Y001461D01*
X022608Y001409D01*
X022554Y001360D01*
X022497Y001314D01*
X022438Y001272D01*
X022376Y001232D01*
X022312Y001196D01*
X022247Y001164D01*
X022180Y001135D01*
X022111Y001110D01*
X022041Y001088D01*
X021970Y001071D01*
X021898Y001057D01*
X021826Y001047D01*
X021753Y001041D01*
X021680Y001039D01*
X021607Y001041D01*
X021534Y001047D01*
X021462Y001057D01*
X021390Y001071D01*
X021319Y001088D01*
X021249Y001110D01*
X021180Y001135D01*
X021113Y001164D01*
X021048Y001196D01*
X020984Y001232D01*
X020922Y001272D01*
X020863Y001314D01*
X020806Y001360D01*
X020752Y001409D01*
X020700Y001461D01*
X020651Y001515D01*
X020605Y001572D01*
X020563Y001631D01*
X020523Y001693D01*
X020487Y001757D01*
X020455Y001822D01*
X020426Y001889D01*
X020401Y001958D01*
X020379Y002028D01*
X020362Y002099D01*
X020348Y002171D01*
X020338Y002243D01*
X020332Y002316D01*
X020330Y002389D01*
X017078Y012708D02*
X016658Y012708D01*
X016258Y012708D01*
X015838Y012708D01*
X015815Y012710D01*
X015792Y012715D01*
X015770Y012724D01*
X015750Y012737D01*
X015732Y012752D01*
X015717Y012770D01*
X015704Y012790D01*
X015695Y012812D01*
X015690Y012835D01*
X015688Y012858D01*
X015688Y016558D01*
X015690Y016581D01*
X015695Y016604D01*
X015704Y016626D01*
X015717Y016646D01*
X015732Y016664D01*
X015750Y016679D01*
X015770Y016692D01*
X015792Y016701D01*
X015815Y016706D01*
X015838Y016708D01*
X017078Y016708D01*
X017101Y016706D01*
X017124Y016701D01*
X017146Y016692D01*
X017166Y016679D01*
X017184Y016664D01*
X017199Y016646D01*
X017212Y016626D01*
X017221Y016604D01*
X017226Y016581D01*
X017228Y016558D01*
X017228Y012858D01*
X017226Y012835D01*
X017221Y012812D01*
X017212Y012790D01*
X017199Y012770D01*
X017184Y012752D01*
X017166Y012737D01*
X017146Y012724D01*
X017124Y012715D01*
X017101Y012710D01*
X017078Y012708D01*
X016658Y012708D02*
X016656Y012735D01*
X016651Y012762D01*
X016641Y012788D01*
X016629Y012812D01*
X016613Y012834D01*
X016595Y012854D01*
X016573Y012871D01*
X016550Y012886D01*
X016525Y012896D01*
X016499Y012904D01*
X016472Y012908D01*
X016444Y012908D01*
X016417Y012904D01*
X016391Y012896D01*
X016366Y012886D01*
X016343Y012871D01*
X016321Y012854D01*
X016303Y012834D01*
X016287Y012812D01*
X016275Y012788D01*
X016265Y012762D01*
X016260Y012735D01*
X016258Y012708D01*
X020330Y021680D02*
X020332Y021753D01*
X020338Y021826D01*
X020348Y021898D01*
X020362Y021970D01*
X020379Y022041D01*
X020401Y022111D01*
X020426Y022180D01*
X020455Y022247D01*
X020487Y022312D01*
X020523Y022376D01*
X020563Y022438D01*
X020605Y022497D01*
X020651Y022554D01*
X020700Y022608D01*
X020752Y022660D01*
X020806Y022709D01*
X020863Y022755D01*
X020922Y022797D01*
X020984Y022837D01*
X021048Y022873D01*
X021113Y022905D01*
X021180Y022934D01*
X021249Y022959D01*
X021319Y022981D01*
X021390Y022998D01*
X021462Y023012D01*
X021534Y023022D01*
X021607Y023028D01*
X021680Y023030D01*
X021753Y023028D01*
X021826Y023022D01*
X021898Y023012D01*
X021970Y022998D01*
X022041Y022981D01*
X022111Y022959D01*
X022180Y022934D01*
X022247Y022905D01*
X022312Y022873D01*
X022376Y022837D01*
X022438Y022797D01*
X022497Y022755D01*
X022554Y022709D01*
X022608Y022660D01*
X022660Y022608D01*
X022709Y022554D01*
X022755Y022497D01*
X022797Y022438D01*
X022837Y022376D01*
X022873Y022312D01*
X022905Y022247D01*
X022934Y022180D01*
X022959Y022111D01*
X022981Y022041D01*
X022998Y021970D01*
X023012Y021898D01*
X023022Y021826D01*
X023028Y021753D01*
X023030Y021680D01*
X023028Y021607D01*
X023022Y021534D01*
X023012Y021462D01*
X022998Y021390D01*
X022981Y021319D01*
X022959Y021249D01*
X022934Y021180D01*
X022905Y021113D01*
X022873Y021048D01*
X022837Y020984D01*
X022797Y020922D01*
X022755Y020863D01*
X022709Y020806D01*
X022660Y020752D01*
X022608Y020700D01*
X022554Y020651D01*
X022497Y020605D01*
X022438Y020563D01*
X022376Y020523D01*
X022312Y020487D01*
X022247Y020455D01*
X022180Y020426D01*
X022111Y020401D01*
X022041Y020379D01*
X021970Y020362D01*
X021898Y020348D01*
X021826Y020338D01*
X021753Y020332D01*
X021680Y020330D01*
X021607Y020332D01*
X021534Y020338D01*
X021462Y020348D01*
X021390Y020362D01*
X021319Y020379D01*
X021249Y020401D01*
X021180Y020426D01*
X021113Y020455D01*
X021048Y020487D01*
X020984Y020523D01*
X020922Y020563D01*
X020863Y020605D01*
X020806Y020651D01*
X020752Y020700D01*
X020700Y020752D01*
X020651Y020806D01*
X020605Y020863D01*
X020563Y020922D01*
X020523Y020984D01*
X020487Y021048D01*
X020455Y021113D01*
X020426Y021180D01*
X020401Y021249D01*
X020379Y021319D01*
X020362Y021390D01*
X020348Y021462D01*
X020338Y021534D01*
X020332Y021607D01*
X020330Y021680D01*
D15*
X016783Y018433D03*
X016133Y018433D03*
X016133Y017483D03*
X016783Y017483D03*
X019133Y014433D03*
X019783Y014433D03*
X019783Y013483D03*
X019133Y013483D03*
X019133Y010433D03*
X019783Y010433D03*
X019783Y009483D03*
X019133Y009483D03*
X007783Y018233D03*
X007133Y018233D03*
X007133Y019183D03*
X007133Y019733D03*
X007783Y019733D03*
X007783Y019183D03*
X007783Y020683D03*
X007783Y021233D03*
X007133Y021233D03*
X007133Y020683D03*
X007133Y022183D03*
X007783Y022183D03*
X004783Y018433D03*
X004133Y018433D03*
X004133Y017483D03*
X004783Y017483D03*
X004783Y014433D03*
X004133Y014433D03*
X004133Y013483D03*
X004783Y013483D03*
X004783Y010433D03*
X004133Y010433D03*
X004133Y009483D03*
X004783Y009483D03*
X004783Y006433D03*
X004133Y006433D03*
X004133Y005483D03*
X004783Y005483D03*
D16*
X004783Y005808D03*
X004783Y006108D03*
X004133Y006108D03*
X004133Y005808D03*
X004133Y009808D03*
X004133Y010108D03*
X004783Y010108D03*
X004783Y009808D03*
X004783Y013808D03*
X004783Y014108D03*
X004133Y014108D03*
X004133Y013808D03*
X004133Y017808D03*
X004133Y018108D03*
X004783Y018108D03*
X004783Y017808D03*
X007133Y018558D03*
X007133Y018858D03*
X007783Y018858D03*
X007783Y018558D03*
X007783Y020058D03*
X007783Y020358D03*
X007133Y020358D03*
X007133Y020058D03*
X007133Y021558D03*
X007133Y021858D03*
X007783Y021858D03*
X007783Y021558D03*
X016133Y018108D03*
X016133Y017808D03*
X016783Y017808D03*
X016783Y018108D03*
X019133Y014108D03*
X019133Y013808D03*
X019783Y013808D03*
X019783Y014108D03*
X019783Y010108D03*
X019783Y009808D03*
X019133Y009808D03*
X019133Y010108D03*
D17*
X019182Y007109D03*
X019182Y004859D03*
X019182Y016859D03*
X019182Y018859D03*
D18*
X018433Y004033D03*
X018433Y003383D03*
X017483Y003383D03*
X016933Y003383D03*
X016933Y004033D03*
X017483Y004033D03*
X015983Y004033D03*
X015983Y003383D03*
X014433Y003383D03*
X014433Y004033D03*
X013483Y004033D03*
X013483Y003383D03*
D19*
X013808Y003383D03*
X014108Y003383D03*
X014108Y004033D03*
X013808Y004033D03*
X016308Y004033D03*
X016608Y004033D03*
X016608Y003383D03*
X016308Y003383D03*
X017808Y003383D03*
X018108Y003383D03*
X018108Y004033D03*
X017808Y004033D03*
M02*
