%
M48
M72
T01C0.0130
T02C0.0320
T03C0.0400
T04C0.1299
%
T01
X4208Y7208
X6958Y7708
X7458Y6458
X7708Y5708
X9708Y6208
X10208Y5458
X11958Y6458
X13458Y4958
X14208Y4958
X14458Y2958
X14208Y2458
X13958Y1958
X13708Y1458
X15458Y1458
X15958Y1958
X16208Y2458
X15808Y2958
X17158Y2708
X17808Y2458
X17508Y1958
X19458Y4208
X19958Y3458
X19958Y1708
X17758Y4558
X17308Y4458
X16208Y5958
X16708Y6458
X16708Y6958
X16208Y7958
X14208Y7958
X11958Y10458
X12208Y11208
X11708Y11658
X11808Y12258
X10958Y13458
X9708Y13958
X9708Y15208
X10958Y16458
X10508Y17208
X9208Y17208
X9208Y19458
X8708Y20208
X8208Y19708
X6458Y17958
X5608Y17308
X5708Y19208
X5208Y20958
X4758Y21208
X4708Y21708
X4208Y21958
X7933Y22483
X8958Y22308
X10508Y20458
X12608Y19558
X12958Y17958
X13558Y17508
X13858Y17808
X14258Y17708
X14208Y18208
X14208Y18708
X14208Y17208
X14258Y16758
X14258Y15708
X13708Y14458
X14208Y13958
X16208Y12708
X17708Y11958
X16708Y15708
X18708Y17708
X18708Y18208
X18208Y18458
X20208Y17458
X20358Y18258
X20458Y19708
X22208Y18708
X22208Y17058
X19808Y15958
X16058Y19208
X15958Y22153
X15458Y22558
X14208Y22208
X13708Y22308
X12558Y21958
X12208Y14958
X13708Y11708
X10958Y8458
X10208Y8458
X9708Y7458
X7458Y9458
X6458Y10208
X5958Y10708
X4958Y11208
X4558Y11958
X4208Y12208
X4758Y15208
X7958Y12958
X7458Y11208
X9708Y11208
X19458Y6458
X19608Y5708
X19708Y7958
X22208Y6958
X22458Y4958
T02
X12208Y17958
X12208Y18958
X10958Y18958
X10958Y17958
T03
X11034Y19968
X11034Y20968
X10034Y20968
X10034Y19968
X12034Y19968
X12034Y20968
X13034Y20968
X14034Y20968
X14034Y19968
X13034Y19968
X17243Y20153
X17243Y21153
X17243Y22153
X18243Y22153
X18243Y21153
X18243Y20153
X21168Y19534
X21168Y18534
X21168Y17534
X21168Y16534
X21168Y15534
X21168Y14534
X21168Y13534
X21168Y12534
X21168Y11534
X21168Y10534
X21168Y9534
X21168Y8534
X21168Y7534
X21168Y6534
X21168Y5534
X21168Y4534
X2901Y4534
X2901Y5534
X2901Y6534
X2901Y7534
X2901Y8534
X2901Y9534
X2901Y10534
X2901Y11534
X2901Y12534
X2901Y13534
X2901Y14534
X2901Y15534
X2901Y16534
X2901Y17534
X2901Y18534
X2901Y19534
T04
X2389Y2389
X2389Y21680
X21680Y21680
X21680Y2389
M30
