G75*
%MOIN*%
%OFA0B0*%
%FSLAX24Y24*%
%IPPOS*%
%LPD*%
%AMOC8*
5,1,8,0,0,1.08239X$1,22.5*
%
%ADD10R,0.0720X0.0720*%
%ADD11C,0.0720*%
%ADD12OC8,0.0720*%
%ADD13R,0.0540X0.0710*%
%ADD14OC8,0.0640*%
%ADD15C,0.2380*%
D10*
X002901Y019534D03*
X018243Y022153D03*
D11*
X021168Y019534D03*
X021168Y018534D03*
X021168Y017534D03*
X021168Y016534D03*
X021168Y015534D03*
X021168Y014534D03*
X021168Y013534D03*
X021168Y012534D03*
X021168Y011534D03*
X021168Y010534D03*
X021168Y009534D03*
X021168Y008534D03*
X021168Y007534D03*
X021168Y006534D03*
X021168Y005534D03*
X021168Y004534D03*
X002901Y004534D03*
X002901Y005534D03*
X002901Y006534D03*
X002901Y007534D03*
X002901Y008534D03*
X002901Y009534D03*
X002901Y010534D03*
X002901Y011534D03*
X002901Y012534D03*
X002901Y013534D03*
X002901Y014534D03*
X002901Y015534D03*
X002901Y016534D03*
X002901Y017534D03*
X002901Y018534D03*
D12*
X010034Y019968D03*
X010034Y020968D03*
X011034Y020968D03*
X011034Y019968D03*
X012034Y019968D03*
X012034Y020968D03*
X013034Y020968D03*
X014034Y020968D03*
X014034Y019968D03*
X013034Y019968D03*
X017243Y020153D03*
X017243Y021153D03*
X017243Y022153D03*
X018243Y021153D03*
X018243Y020153D03*
D13*
X016058Y019708D03*
X015458Y019708D03*
X014858Y019708D03*
X014858Y018708D03*
X015458Y018708D03*
X016058Y018708D03*
X016058Y017708D03*
X015458Y017708D03*
X014858Y017708D03*
X014858Y016708D03*
X015458Y016708D03*
X016058Y016708D03*
X016058Y015708D03*
X015458Y015708D03*
X014858Y015708D03*
X014858Y014708D03*
X015458Y014708D03*
X016058Y014708D03*
D14*
X012208Y017958D03*
X012208Y018958D03*
X010958Y018958D03*
X010958Y017958D03*
D15*
X002389Y002389D03*
X002389Y021680D03*
X021680Y021680D03*
X021680Y002389D03*
M02*
