G75*
%MOIN*%
%OFA0B0*%
%FSLAX24Y24*%
%IPPOS*%
%LPD*%
%AMOC8*
5,1,8,0,0,1.08239X$1,22.5*
%
%ADD10C,0.0040*%
%ADD11C,0.0060*%
%ADD12C,0.0100*%
%ADD13R,0.0750X0.0800*%
%ADD14C,0.0050*%
%ADD15C,0.0300*%
%ADD16R,0.0300X0.0200*%
%ADD17R,0.0300X0.0400*%
%ADD18R,0.0300X0.0300*%
%ADD19C,0.0080*%
%ADD20R,0.0483X0.0017*%
%ADD21R,0.0700X0.0017*%
%ADD22R,0.0867X0.0017*%
%ADD23R,0.1000X0.0017*%
%ADD24R,0.1117X0.0017*%
%ADD25R,0.1217X0.0017*%
%ADD26R,0.1300X0.0017*%
%ADD27R,0.0517X0.0017*%
%ADD28R,0.0550X0.0017*%
%ADD29R,0.0450X0.0017*%
%ADD30R,0.0400X0.0017*%
%ADD31R,0.0417X0.0017*%
%ADD32R,0.0367X0.0017*%
%ADD33R,0.0383X0.0017*%
%ADD34R,0.0333X0.0017*%
%ADD35R,0.0350X0.0017*%
%ADD36R,0.0317X0.0017*%
%ADD37R,0.0283X0.0017*%
%ADD38R,0.0300X0.0017*%
%ADD39R,0.0283X0.0017*%
%ADD40R,0.0283X0.0017*%
%ADD41R,0.0250X0.0017*%
%ADD42R,0.0233X0.0017*%
%ADD43R,0.0267X0.0017*%
%ADD44R,0.0217X0.0017*%
%ADD45R,0.0267X0.0017*%
%ADD46R,0.0200X0.0017*%
%ADD47R,0.0250X0.0017*%
%ADD48R,0.0183X0.0017*%
%ADD49R,0.0233X0.0017*%
%ADD50R,0.0183X0.0017*%
%ADD51R,0.0183X0.0017*%
%ADD52R,0.0167X0.0017*%
%ADD53R,0.0167X0.0017*%
%ADD54R,0.0217X0.0017*%
%ADD55R,0.0067X0.0017*%
%ADD56R,0.0150X0.0017*%
%ADD57R,0.0200X0.0017*%
%ADD58R,0.0133X0.0017*%
%ADD59R,0.0217X0.0017*%
%ADD60R,0.0017X0.0017*%
%ADD61R,0.0133X0.0017*%
%ADD62R,0.0217X0.0017*%
%ADD63R,0.0050X0.0017*%
%ADD64R,0.0300X0.0017*%
%ADD65R,0.0083X0.0017*%
%ADD66R,0.0133X0.0017*%
%ADD67R,0.0433X0.0017*%
%ADD68R,0.0133X0.0017*%
%ADD69R,0.0117X0.0017*%
%ADD70R,0.0467X0.0017*%
%ADD71R,0.0117X0.0017*%
%ADD72R,0.0483X0.0017*%
%ADD73R,0.0467X0.0017*%
%ADD74R,0.0383X0.0017*%
%ADD75R,0.0350X0.0017*%
%ADD76R,0.0150X0.0017*%
%ADD77R,0.0317X0.0017*%
%ADD78R,0.0283X0.0017*%
%ADD79R,0.0167X0.0017*%
%ADD80R,0.0267X0.0017*%
%ADD81R,0.0167X0.0017*%
%ADD82R,0.0100X0.0017*%
%ADD83R,0.0100X0.0017*%
%ADD84R,0.0233X0.0017*%
%ADD85R,0.0117X0.0017*%
%ADD86R,0.0500X0.0017*%
%ADD87R,0.0083X0.0017*%
%ADD88R,0.0500X0.0017*%
%ADD89R,0.0483X0.0017*%
%ADD90R,0.0233X0.0017*%
%ADD91R,0.0450X0.0017*%
%ADD92R,0.0433X0.0017*%
%ADD93R,0.0417X0.0017*%
%ADD94R,0.0183X0.0017*%
%ADD95R,0.0433X0.0017*%
%ADD96R,0.0333X0.0017*%
%ADD97R,0.0400X0.0017*%
%ADD98R,0.0367X0.0017*%
%ADD99R,0.0017X0.0017*%
%ADD100R,0.0333X0.0017*%
%ADD101R,0.0383X0.0017*%
%ADD102R,0.0433X0.0017*%
%ADD103R,0.0717X0.0017*%
%ADD104R,0.0700X0.0017*%
%ADD105R,0.0717X0.0017*%
%ADD106R,0.0317X0.0017*%
%ADD107R,0.0333X0.0017*%
%ADD108R,0.0733X0.0017*%
%ADD109R,0.0717X0.0017*%
%ADD110R,0.0683X0.0017*%
%ADD111R,0.0650X0.0017*%
%ADD112R,0.0617X0.0017*%
%ADD113R,0.0600X0.0017*%
%ADD114R,0.0567X0.0017*%
%ADD115R,0.0367X0.0017*%
%ADD116R,0.0533X0.0017*%
%ADD117R,0.0367X0.0017*%
%ADD118R,0.0417X0.0017*%
%ADD119R,0.0550X0.0017*%
%ADD120R,0.0583X0.0017*%
%ADD121R,0.0733X0.0017*%
%ADD122R,0.0383X0.0017*%
%ADD123R,0.0767X0.0017*%
%ADD124R,0.0783X0.0017*%
%ADD125R,0.0033X0.0017*%
%ADD126R,0.0067X0.0017*%
%ADD127R,0.0533X0.0017*%
%ADD128R,0.0567X0.0017*%
%ADD129R,0.0517X0.0017*%
%ADD130R,0.0567X0.0017*%
%ADD131R,0.0517X0.0017*%
%ADD132R,0.0317X0.0017*%
%ADD133R,0.0067X0.0017*%
%ADD134R,0.0033X0.0017*%
%ADD135R,0.0467X0.0017*%
%ADD136R,0.0583X0.0017*%
%ADD137R,0.0600X0.0017*%
%ADD138R,0.0633X0.0017*%
%ADD139R,0.0683X0.0017*%
%ADD140R,0.0650X0.0017*%
%ADD141R,0.0717X0.0017*%
%ADD142R,0.0533X0.0017*%
%ADD143R,0.0883X0.0017*%
%ADD144R,0.0750X0.0017*%
%ADD145R,0.0883X0.0017*%
%ADD146R,0.0033X0.0017*%
%ADD147R,0.1717X0.0017*%
%ADD148R,0.1683X0.0017*%
%ADD149R,0.1650X0.0017*%
%ADD150R,0.1633X0.0017*%
%ADD151R,0.1333X0.0017*%
%ADD152R,0.1283X0.0017*%
%ADD153R,0.1233X0.0017*%
%ADD154R,0.1183X0.0017*%
%ADD155R,0.0867X0.0017*%
%ADD156R,0.0767X0.0017*%
%ADD157R,0.0050X0.0017*%
D10*
X014841Y013804D02*
X014918Y013728D01*
X015071Y013728D01*
X015148Y013804D01*
X014841Y014111D01*
X014841Y013804D01*
X015148Y013804D02*
X015148Y014111D01*
X015071Y014188D01*
X014918Y014188D01*
X014841Y014111D01*
X016495Y012438D02*
X016495Y011978D01*
X016648Y011978D02*
X016341Y011978D01*
X016648Y012285D02*
X016495Y012438D01*
X016188Y020228D02*
X015881Y020228D01*
X016034Y020228D02*
X016034Y020688D01*
X016188Y020535D01*
X015188Y020611D02*
X015188Y020304D01*
X014881Y020611D01*
X014881Y020304D01*
X014957Y020228D01*
X015111Y020228D01*
X015188Y020304D01*
X015188Y020611D02*
X015111Y020688D01*
X014957Y020688D01*
X014881Y020611D01*
D11*
X000523Y002378D02*
X000523Y001738D01*
X000416Y002058D02*
X000843Y002058D01*
X000523Y002378D01*
X001274Y002378D02*
X001274Y001738D01*
X001061Y001738D02*
X001488Y001738D01*
X001705Y001844D02*
X001812Y001738D01*
X002026Y001738D01*
X002132Y001844D01*
X001705Y002271D01*
X001705Y001844D01*
X001488Y002165D02*
X001274Y002378D01*
X001705Y002271D02*
X001812Y002378D01*
X002026Y002378D01*
X002132Y002271D01*
X002132Y001844D01*
X002350Y001738D02*
X002777Y001738D01*
X002350Y002165D01*
X002350Y002271D01*
X002457Y002378D01*
X002670Y002378D01*
X002777Y002271D01*
X003638Y002165D02*
X003638Y001951D01*
X003851Y001738D01*
X004069Y001738D02*
X004389Y001738D01*
X004496Y001844D01*
X004496Y002058D01*
X004389Y002165D01*
X004069Y002165D01*
X003851Y002378D02*
X003638Y002165D01*
X004712Y002378D02*
X004925Y002165D01*
X004925Y001951D01*
X004712Y001738D01*
X005786Y001738D02*
X006000Y001738D01*
X005893Y001738D02*
X005893Y002378D01*
X006000Y002378D01*
X006217Y002058D02*
X006217Y001738D01*
X006537Y001738D01*
X006644Y001844D01*
X006537Y001951D01*
X006217Y001951D01*
X006217Y002058D02*
X006324Y002165D01*
X006537Y002165D01*
X006862Y002165D02*
X007182Y002165D01*
X007289Y002058D01*
X007289Y001844D01*
X007182Y001738D01*
X006862Y001738D01*
X007505Y001738D02*
X007718Y001738D01*
X007612Y001738D02*
X007612Y002165D01*
X007718Y002165D01*
X007612Y002378D02*
X007612Y002485D01*
X007936Y002058D02*
X007936Y001738D01*
X007936Y002058D02*
X008043Y002165D01*
X008363Y002165D01*
X008363Y001738D01*
X008580Y001738D02*
X008901Y001738D01*
X009007Y001844D01*
X008901Y001951D01*
X008580Y001951D01*
X008580Y002058D02*
X008580Y001738D01*
X008580Y002058D02*
X008687Y002165D01*
X008901Y002165D01*
X009225Y002058D02*
X009225Y001738D01*
X009225Y002058D02*
X009332Y002165D01*
X009545Y002165D01*
X009652Y002058D01*
X009870Y002165D02*
X010190Y002165D01*
X010297Y002058D01*
X010297Y001844D01*
X010190Y001738D01*
X009870Y001738D01*
X009652Y001738D02*
X009652Y002378D01*
X010299Y002594D02*
X010299Y003021D01*
X010726Y002594D01*
X010619Y002488D01*
X010406Y002488D01*
X010299Y002594D01*
X010299Y003021D02*
X010406Y003128D01*
X010619Y003128D01*
X010726Y003021D01*
X010726Y002594D01*
X010942Y002594D02*
X010942Y002488D01*
X011049Y002488D01*
X011049Y002594D01*
X010942Y002594D01*
X011266Y002594D02*
X011373Y002488D01*
X011586Y002488D01*
X011693Y002594D01*
X011480Y002808D02*
X011373Y002808D01*
X011266Y002701D01*
X011266Y002594D01*
X011373Y002808D02*
X011266Y002915D01*
X011266Y003021D01*
X011373Y003128D01*
X011586Y003128D01*
X011693Y003021D01*
X011803Y003488D02*
X012123Y003488D01*
X012230Y003594D01*
X012123Y003701D01*
X011803Y003701D01*
X011803Y003808D02*
X011803Y003488D01*
X011586Y003594D02*
X011479Y003488D01*
X011159Y003488D01*
X010941Y003488D02*
X010941Y004128D01*
X011159Y003915D02*
X011479Y003915D01*
X011586Y003808D01*
X011586Y003594D01*
X011803Y003808D02*
X011910Y003915D01*
X012123Y003915D01*
X012448Y003915D02*
X012554Y003808D01*
X012875Y003808D01*
X012875Y003488D02*
X012875Y004128D01*
X012554Y004128D01*
X012448Y004021D01*
X012448Y003915D01*
X012554Y003808D02*
X012448Y003701D01*
X012448Y003594D01*
X012554Y003488D01*
X012875Y003488D01*
X012769Y003128D02*
X012555Y002915D01*
X012555Y002488D01*
X012554Y002165D02*
X012447Y002165D01*
X012554Y002165D02*
X012767Y001951D01*
X012767Y001738D02*
X012767Y002165D01*
X012984Y002165D02*
X013197Y002165D01*
X013090Y002271D02*
X013090Y001844D01*
X012984Y001738D01*
X013415Y001738D02*
X013735Y001738D01*
X013842Y001844D01*
X013842Y002058D01*
X013735Y002165D01*
X013415Y002165D01*
X013520Y002488D02*
X013306Y002488D01*
X013200Y002594D01*
X013200Y002701D01*
X013306Y002808D01*
X013520Y002808D01*
X013627Y002915D01*
X013627Y003021D01*
X013520Y003128D01*
X013306Y003128D01*
X013200Y003021D01*
X012982Y002915D02*
X012769Y003128D01*
X012982Y002915D02*
X012982Y002488D01*
X012982Y002808D02*
X012555Y002808D01*
X012123Y002165D02*
X011910Y002165D01*
X011803Y002058D01*
X011803Y001844D01*
X011910Y001738D01*
X012123Y001738D01*
X012230Y001844D01*
X012230Y002058D01*
X012123Y002165D01*
X011586Y002165D02*
X011586Y001738D01*
X011372Y001738D02*
X011372Y002058D01*
X011265Y002165D01*
X011159Y002058D01*
X011159Y001738D01*
X010941Y001844D02*
X010941Y002058D01*
X010834Y002165D01*
X010621Y002165D01*
X010514Y002058D01*
X010514Y001951D01*
X010941Y001951D01*
X010941Y001844D02*
X010834Y001738D01*
X010621Y001738D01*
X011372Y002058D02*
X011479Y002165D01*
X011586Y002165D01*
X010404Y003274D02*
X010404Y003915D01*
X010084Y003915D01*
X009977Y003808D01*
X009977Y003594D01*
X010084Y003488D01*
X010404Y003488D01*
X010621Y003488D02*
X010941Y003701D01*
X010621Y003915D01*
X009759Y003594D02*
X009653Y003488D01*
X009332Y003488D01*
X009332Y003808D01*
X009439Y003915D01*
X009653Y003915D01*
X009653Y003701D02*
X009332Y003701D01*
X009115Y003594D02*
X009008Y003488D01*
X008688Y003488D01*
X008470Y003488D02*
X008470Y004128D01*
X008688Y003915D02*
X009008Y003915D01*
X009115Y003808D01*
X009115Y003594D01*
X008470Y003701D02*
X008150Y003915D01*
X008470Y003701D02*
X008150Y003488D01*
X007289Y003915D02*
X007075Y003488D01*
X006862Y003915D01*
X006644Y004021D02*
X006537Y004128D01*
X006324Y004128D01*
X006217Y004021D01*
X006217Y003915D01*
X006644Y003488D01*
X006217Y003488D01*
X009653Y003701D02*
X009759Y003594D01*
X013520Y002488D02*
X013627Y002594D01*
X013844Y002808D02*
X014271Y002808D01*
X014489Y003021D02*
X014596Y003128D01*
X014809Y003128D01*
X014916Y003021D01*
X014916Y002594D01*
X014809Y002488D01*
X014596Y002488D01*
X014489Y002594D01*
X014809Y002378D02*
X014809Y001738D01*
X014916Y001738D02*
X014702Y001738D01*
X014486Y001844D02*
X014486Y002058D01*
X014379Y002165D01*
X014166Y002165D01*
X014059Y002058D01*
X014059Y001951D01*
X014486Y001951D01*
X014486Y001844D02*
X014379Y001738D01*
X014166Y001738D01*
X014809Y002378D02*
X014916Y002378D01*
X015133Y002378D02*
X015560Y002378D01*
X015560Y001738D01*
X015133Y001738D01*
X015347Y002058D02*
X015560Y002058D01*
X015560Y002488D02*
X015560Y003128D01*
X015133Y002488D01*
X015133Y003128D01*
X015131Y003488D02*
X015131Y003915D01*
X015131Y003701D02*
X014917Y003915D01*
X014810Y003915D01*
X014594Y003915D02*
X014487Y003915D01*
X014487Y003488D01*
X014594Y003488D02*
X014380Y003488D01*
X014164Y003488D02*
X013737Y003915D01*
X014164Y003915D02*
X013737Y003488D01*
X014487Y004128D02*
X014487Y004235D01*
X015347Y003915D02*
X015560Y003915D01*
X015454Y004021D02*
X015454Y003594D01*
X015347Y003488D01*
X015778Y003488D02*
X016098Y003488D01*
X016205Y003594D01*
X016098Y003701D01*
X015778Y003701D01*
X015778Y003808D02*
X015778Y003488D01*
X015778Y003808D02*
X015885Y003915D01*
X016098Y003915D01*
X016422Y004128D02*
X016422Y003488D01*
X016422Y003128D02*
X016422Y003021D01*
X016636Y002808D01*
X016636Y002488D01*
X016743Y002165D02*
X016422Y002165D01*
X016529Y001951D02*
X016743Y001951D01*
X016849Y002058D01*
X016743Y002165D01*
X016529Y001951D02*
X016422Y001844D01*
X016529Y001738D01*
X016849Y001738D01*
X017067Y001844D02*
X017067Y002058D01*
X017174Y002165D01*
X017387Y002165D01*
X017494Y002058D01*
X017494Y001844D01*
X017387Y001738D01*
X017174Y001738D01*
X017067Y001844D01*
X017174Y002488D02*
X017494Y002488D01*
X017494Y003128D01*
X017174Y003128D01*
X017067Y003021D01*
X017067Y002915D01*
X017174Y002808D01*
X017494Y002808D01*
X017712Y002808D02*
X018139Y002808D01*
X018356Y003021D02*
X018463Y003128D01*
X018676Y003128D01*
X018783Y003021D01*
X018783Y002594D01*
X018676Y002488D01*
X018463Y002488D01*
X018356Y002594D01*
X018463Y002165D02*
X018676Y002165D01*
X018783Y002058D01*
X018783Y001844D01*
X018676Y001738D01*
X018463Y001738D01*
X018356Y001844D01*
X018356Y002058D01*
X018463Y002165D01*
X018139Y002058D02*
X018139Y001844D01*
X018032Y001738D01*
X017712Y001738D01*
X017712Y001631D02*
X017712Y002165D01*
X018032Y002165D01*
X018139Y002058D01*
X017712Y001631D02*
X017818Y001524D01*
X017925Y001524D01*
X019001Y001738D02*
X019428Y001738D01*
X019428Y002378D01*
X019321Y002488D02*
X019107Y002488D01*
X019001Y002594D01*
X019001Y003021D02*
X019107Y003128D01*
X019321Y003128D01*
X019428Y003021D01*
X019428Y002594D01*
X019321Y002488D01*
X019428Y003488D02*
X019428Y004128D01*
X019107Y004128D01*
X019001Y004021D01*
X019001Y003808D01*
X019107Y003701D01*
X019428Y003701D01*
X019214Y003701D02*
X019001Y003488D01*
X018783Y003594D02*
X018676Y003488D01*
X018463Y003488D01*
X018356Y003594D01*
X018356Y003808D01*
X018570Y003808D01*
X018783Y004021D02*
X018783Y003594D01*
X018783Y004021D02*
X018676Y004128D01*
X018463Y004128D01*
X018356Y004021D01*
X018139Y004128D02*
X017818Y004128D01*
X017712Y004021D01*
X017712Y003915D01*
X017818Y003808D01*
X018139Y003808D01*
X018139Y003488D02*
X018139Y004128D01*
X017818Y003808D02*
X017712Y003701D01*
X017712Y003594D01*
X017818Y003488D01*
X018139Y003488D01*
X017174Y002808D02*
X017067Y002701D01*
X017067Y002594D01*
X017174Y002488D01*
X016849Y003021D02*
X016636Y002808D01*
X016849Y003021D02*
X016849Y003128D01*
X016849Y003488D02*
X016849Y004128D01*
X016636Y003915D01*
X016422Y004128D01*
X016205Y002808D02*
X015778Y002808D01*
X010835Y008111D02*
X010563Y008111D01*
X010483Y008169D02*
X010895Y008169D01*
X010956Y008228D02*
X010403Y008228D01*
X010323Y008286D02*
X011016Y008286D01*
X011018Y008288D02*
X010718Y008718D01*
X010918Y009198D01*
X011448Y009298D01*
X011438Y009718D01*
X010898Y009818D01*
X010708Y010288D01*
X010998Y010728D01*
X010708Y010988D01*
X010278Y010688D01*
X009818Y010878D01*
X009708Y011418D01*
X009298Y011428D01*
X009208Y010878D01*
X008738Y010708D01*
X008288Y010998D01*
X008008Y010708D01*
X008318Y010268D01*
X008098Y009798D01*
X007578Y009698D01*
X007588Y009288D01*
X008108Y009198D01*
X008278Y008708D01*
X007998Y008278D01*
X008298Y007998D01*
X008708Y008268D01*
X008878Y008188D01*
X009188Y008948D01*
X008888Y009248D01*
X008898Y009758D01*
X009288Y010108D01*
X009758Y010098D01*
X010098Y009748D01*
X010108Y009228D01*
X009828Y008928D01*
X010108Y008188D01*
X010308Y008298D01*
X010718Y007998D01*
X011018Y008288D01*
X010978Y008345D02*
X010048Y008345D01*
X010026Y008403D02*
X010937Y008403D01*
X010896Y008462D02*
X010004Y008462D01*
X009982Y008520D02*
X010855Y008520D01*
X010815Y008579D02*
X009960Y008579D01*
X009938Y008637D02*
X010774Y008637D01*
X010733Y008696D02*
X009915Y008696D01*
X009893Y008754D02*
X010733Y008754D01*
X010757Y008813D02*
X009871Y008813D01*
X009849Y008871D02*
X010782Y008871D01*
X010806Y008930D02*
X009830Y008930D01*
X009884Y008988D02*
X010830Y008988D01*
X010855Y009047D02*
X009939Y009047D01*
X009993Y009105D02*
X010879Y009105D01*
X010904Y009164D02*
X010048Y009164D01*
X010103Y009222D02*
X011048Y009222D01*
X011358Y009281D02*
X010107Y009281D01*
X010106Y009339D02*
X011447Y009339D01*
X011445Y009398D02*
X010104Y009398D01*
X010103Y009456D02*
X011444Y009456D01*
X011443Y009515D02*
X010102Y009515D01*
X010101Y009573D02*
X011441Y009573D01*
X011440Y009632D02*
X010100Y009632D01*
X010099Y009690D02*
X011438Y009690D01*
X011270Y009749D02*
X010097Y009749D01*
X010040Y009807D02*
X010954Y009807D01*
X010878Y009866D02*
X009983Y009866D01*
X009926Y009924D02*
X010855Y009924D01*
X010831Y009983D02*
X009869Y009983D01*
X009813Y010041D02*
X010807Y010041D01*
X010784Y010100D02*
X009662Y010100D01*
X009279Y010100D02*
X008239Y010100D01*
X008266Y010158D02*
X010760Y010158D01*
X010736Y010217D02*
X008294Y010217D01*
X008312Y010275D02*
X010713Y010275D01*
X010738Y010334D02*
X008271Y010334D01*
X008230Y010392D02*
X010777Y010392D01*
X010815Y010451D02*
X008189Y010451D01*
X008148Y010509D02*
X010854Y010509D01*
X010892Y010568D02*
X008106Y010568D01*
X008065Y010626D02*
X010931Y010626D01*
X010969Y010685D02*
X008024Y010685D01*
X008042Y010743D02*
X008683Y010743D01*
X008592Y010802D02*
X008098Y010802D01*
X008155Y010860D02*
X008501Y010860D01*
X008410Y010919D02*
X008211Y010919D01*
X008268Y010977D02*
X008319Y010977D01*
X008836Y010743D02*
X010143Y010743D01*
X010002Y010802D02*
X008998Y010802D01*
X009159Y010860D02*
X009860Y010860D01*
X009809Y010919D02*
X009214Y010919D01*
X009224Y010977D02*
X009797Y010977D01*
X009785Y011036D02*
X009234Y011036D01*
X009243Y011094D02*
X009774Y011094D01*
X009762Y011153D02*
X009253Y011153D01*
X009262Y011211D02*
X009750Y011211D01*
X009738Y011270D02*
X009272Y011270D01*
X009281Y011328D02*
X009726Y011328D01*
X009714Y011387D02*
X009291Y011387D01*
X010357Y010743D02*
X010980Y010743D01*
X010915Y010802D02*
X010441Y010802D01*
X010525Y010860D02*
X010850Y010860D01*
X010785Y010919D02*
X010609Y010919D01*
X010693Y010977D02*
X010719Y010977D01*
X009214Y010041D02*
X008212Y010041D01*
X008184Y009983D02*
X009148Y009983D01*
X009083Y009924D02*
X008157Y009924D01*
X008130Y009866D02*
X009018Y009866D01*
X008953Y009807D02*
X008102Y009807D01*
X007843Y009749D02*
X008898Y009749D01*
X008896Y009690D02*
X007578Y009690D01*
X007579Y009632D02*
X008895Y009632D01*
X008894Y009573D02*
X007581Y009573D01*
X007582Y009515D02*
X008893Y009515D01*
X008892Y009456D02*
X007584Y009456D01*
X007585Y009398D02*
X008891Y009398D01*
X008889Y009339D02*
X007586Y009339D01*
X007628Y009281D02*
X008888Y009281D01*
X008913Y009222D02*
X007966Y009222D01*
X008119Y009164D02*
X008972Y009164D01*
X009030Y009105D02*
X008140Y009105D01*
X008160Y009047D02*
X009089Y009047D01*
X009147Y008988D02*
X008180Y008988D01*
X008201Y008930D02*
X009180Y008930D01*
X009156Y008871D02*
X008221Y008871D01*
X008241Y008813D02*
X009133Y008813D01*
X009109Y008754D02*
X008262Y008754D01*
X008270Y008696D02*
X009085Y008696D01*
X009061Y008637D02*
X008232Y008637D01*
X008194Y008579D02*
X009037Y008579D01*
X009013Y008520D02*
X008156Y008520D01*
X008118Y008462D02*
X008989Y008462D01*
X008966Y008403D02*
X008079Y008403D01*
X008041Y008345D02*
X008942Y008345D01*
X008918Y008286D02*
X008003Y008286D01*
X008051Y008228D02*
X008647Y008228D01*
X008558Y008169D02*
X008114Y008169D01*
X008177Y008111D02*
X008469Y008111D01*
X008380Y008052D02*
X008239Y008052D01*
X008793Y008228D02*
X008894Y008228D01*
X010070Y008286D02*
X010287Y008286D01*
X010180Y008228D02*
X010093Y008228D01*
X010643Y008052D02*
X010774Y008052D01*
X014608Y014308D02*
X016308Y014308D01*
X016325Y014310D01*
X016342Y014314D01*
X016358Y014321D01*
X016372Y014331D01*
X016385Y014344D01*
X016395Y014358D01*
X016402Y014374D01*
X016406Y014391D01*
X016408Y014408D01*
X016408Y015008D01*
X016406Y015025D01*
X016402Y015042D01*
X016395Y015058D01*
X016385Y015072D01*
X016372Y015085D01*
X016358Y015095D01*
X016342Y015102D01*
X016325Y015106D01*
X016308Y015108D01*
X014608Y015108D01*
X014591Y015106D01*
X014574Y015102D01*
X014558Y015095D01*
X014544Y015085D01*
X014531Y015072D01*
X014521Y015058D01*
X014514Y015042D01*
X014510Y015025D01*
X014508Y015008D01*
X014508Y014408D01*
X014510Y014391D01*
X014514Y014374D01*
X014521Y014358D01*
X014531Y014344D01*
X014544Y014331D01*
X014558Y014321D01*
X014574Y014314D01*
X014591Y014310D01*
X014608Y014308D01*
X014608Y015308D02*
X016308Y015308D01*
X016325Y015310D01*
X016342Y015314D01*
X016358Y015321D01*
X016372Y015331D01*
X016385Y015344D01*
X016395Y015358D01*
X016402Y015374D01*
X016406Y015391D01*
X016408Y015408D01*
X016408Y016008D01*
X016406Y016025D01*
X016402Y016042D01*
X016395Y016058D01*
X016385Y016072D01*
X016372Y016085D01*
X016358Y016095D01*
X016342Y016102D01*
X016325Y016106D01*
X016308Y016108D01*
X014608Y016108D01*
X014591Y016106D01*
X014574Y016102D01*
X014558Y016095D01*
X014544Y016085D01*
X014531Y016072D01*
X014521Y016058D01*
X014514Y016042D01*
X014510Y016025D01*
X014508Y016008D01*
X014508Y015408D01*
X014510Y015391D01*
X014514Y015374D01*
X014521Y015358D01*
X014531Y015344D01*
X014544Y015331D01*
X014558Y015321D01*
X014574Y015314D01*
X014591Y015310D01*
X014608Y015308D01*
X014608Y016308D02*
X016308Y016308D01*
X016325Y016310D01*
X016342Y016314D01*
X016358Y016321D01*
X016372Y016331D01*
X016385Y016344D01*
X016395Y016358D01*
X016402Y016374D01*
X016406Y016391D01*
X016408Y016408D01*
X016408Y017008D01*
X016406Y017025D01*
X016402Y017042D01*
X016395Y017058D01*
X016385Y017072D01*
X016372Y017085D01*
X016358Y017095D01*
X016342Y017102D01*
X016325Y017106D01*
X016308Y017108D01*
X014608Y017108D01*
X014591Y017106D01*
X014574Y017102D01*
X014558Y017095D01*
X014544Y017085D01*
X014531Y017072D01*
X014521Y017058D01*
X014514Y017042D01*
X014510Y017025D01*
X014508Y017008D01*
X014508Y016408D01*
X014510Y016391D01*
X014514Y016374D01*
X014521Y016358D01*
X014531Y016344D01*
X014544Y016331D01*
X014558Y016321D01*
X014574Y016314D01*
X014591Y016310D01*
X014608Y016308D01*
X014608Y017308D02*
X016308Y017308D01*
X016325Y017310D01*
X016342Y017314D01*
X016358Y017321D01*
X016372Y017331D01*
X016385Y017344D01*
X016395Y017358D01*
X016402Y017374D01*
X016406Y017391D01*
X016408Y017408D01*
X016408Y018008D01*
X016406Y018025D01*
X016402Y018042D01*
X016395Y018058D01*
X016385Y018072D01*
X016372Y018085D01*
X016358Y018095D01*
X016342Y018102D01*
X016325Y018106D01*
X016308Y018108D01*
X014608Y018108D01*
X014591Y018106D01*
X014574Y018102D01*
X014558Y018095D01*
X014544Y018085D01*
X014531Y018072D01*
X014521Y018058D01*
X014514Y018042D01*
X014510Y018025D01*
X014508Y018008D01*
X014508Y017408D01*
X014510Y017391D01*
X014514Y017374D01*
X014521Y017358D01*
X014531Y017344D01*
X014544Y017331D01*
X014558Y017321D01*
X014574Y017314D01*
X014591Y017310D01*
X014608Y017308D01*
X014608Y018308D02*
X016308Y018308D01*
X016325Y018310D01*
X016342Y018314D01*
X016358Y018321D01*
X016372Y018331D01*
X016385Y018344D01*
X016395Y018358D01*
X016402Y018374D01*
X016406Y018391D01*
X016408Y018408D01*
X016408Y019008D01*
X016406Y019025D01*
X016402Y019042D01*
X016395Y019058D01*
X016385Y019072D01*
X016372Y019085D01*
X016358Y019095D01*
X016342Y019102D01*
X016325Y019106D01*
X016308Y019108D01*
X014608Y019108D01*
X014591Y019106D01*
X014574Y019102D01*
X014558Y019095D01*
X014544Y019085D01*
X014531Y019072D01*
X014521Y019058D01*
X014514Y019042D01*
X014510Y019025D01*
X014508Y019008D01*
X014508Y018408D01*
X014510Y018391D01*
X014514Y018374D01*
X014521Y018358D01*
X014531Y018344D01*
X014544Y018331D01*
X014558Y018321D01*
X014574Y018314D01*
X014591Y018310D01*
X014608Y018308D01*
X014608Y019308D02*
X016308Y019308D01*
X016325Y019310D01*
X016342Y019314D01*
X016358Y019321D01*
X016372Y019331D01*
X016385Y019344D01*
X016395Y019358D01*
X016402Y019374D01*
X016406Y019391D01*
X016408Y019408D01*
X016408Y020008D01*
X016406Y020025D01*
X016402Y020042D01*
X016395Y020058D01*
X016385Y020072D01*
X016372Y020085D01*
X016358Y020095D01*
X016342Y020102D01*
X016325Y020106D01*
X016308Y020108D01*
X014608Y020108D01*
X014591Y020106D01*
X014574Y020102D01*
X014558Y020095D01*
X014544Y020085D01*
X014531Y020072D01*
X014521Y020058D01*
X014514Y020042D01*
X014510Y020025D01*
X014508Y020008D01*
X014508Y019408D01*
X014510Y019391D01*
X014514Y019374D01*
X014521Y019358D01*
X014531Y019344D01*
X014544Y019331D01*
X014558Y019321D01*
X014574Y019314D01*
X014591Y019310D01*
X014608Y019308D01*
X014534Y021718D02*
X013534Y021718D01*
X012534Y021718D01*
X011534Y021718D01*
X010534Y021718D01*
X009534Y021718D01*
X009534Y022718D01*
X010534Y022718D01*
X011534Y022718D01*
X012534Y022718D01*
X013534Y022718D01*
X014534Y022718D01*
X014534Y021718D01*
X013534Y021718D02*
X013534Y022718D01*
X012534Y022718D02*
X012534Y021718D01*
X011534Y021718D02*
X011534Y022718D01*
X010534Y022718D02*
X010534Y021718D01*
X008678Y021713D02*
X008678Y021826D01*
X008621Y021883D01*
X008508Y021883D02*
X008451Y021770D01*
X008451Y021713D01*
X008508Y021656D01*
X008621Y021656D01*
X008678Y021713D01*
X008678Y021515D02*
X008678Y021401D01*
X008337Y021401D01*
X008337Y021515D01*
X008337Y021656D02*
X008337Y021883D01*
X008508Y021883D01*
X008621Y022025D02*
X008394Y022025D01*
X008621Y022251D01*
X008678Y022195D01*
X008678Y022081D01*
X008621Y022025D01*
X008621Y022251D02*
X008394Y022251D01*
X008337Y022195D01*
X008337Y022081D01*
X008394Y022025D01*
X008178Y022081D02*
X008178Y022195D01*
X008121Y022251D01*
X007894Y022025D01*
X008121Y022025D01*
X008178Y022081D01*
X008121Y022251D02*
X007894Y022251D01*
X007837Y022195D01*
X007837Y022081D01*
X007894Y022025D01*
X008008Y021883D02*
X007837Y021713D01*
X008178Y021713D01*
X008008Y021656D02*
X008008Y021883D01*
X008178Y021515D02*
X008178Y021401D01*
X007837Y021401D01*
X007837Y021515D01*
X007678Y021528D02*
X007678Y021415D01*
X007337Y021415D01*
X007337Y021528D01*
X007394Y021670D02*
X007451Y021670D01*
X007508Y021726D01*
X007564Y021670D01*
X007621Y021670D01*
X007678Y021726D01*
X007678Y021840D01*
X007621Y021896D01*
X007621Y022038D02*
X007394Y022038D01*
X007621Y022265D01*
X007678Y022208D01*
X007678Y022095D01*
X007621Y022038D01*
X007621Y022265D02*
X007394Y022265D01*
X007337Y022208D01*
X007337Y022095D01*
X007394Y022038D01*
X007394Y021896D02*
X007337Y021840D01*
X007337Y021726D01*
X007394Y021670D01*
X007508Y021726D02*
X007508Y021783D01*
X007178Y021670D02*
X007178Y021896D01*
X006951Y021670D01*
X006894Y021670D01*
X006837Y021726D01*
X006837Y021840D01*
X006894Y021896D01*
X006894Y022038D02*
X007121Y022265D01*
X007178Y022208D01*
X007178Y022095D01*
X007121Y022038D01*
X006894Y022038D01*
X006837Y022095D01*
X006837Y022208D01*
X006894Y022265D01*
X007121Y022265D01*
X007178Y022397D02*
X007178Y022510D01*
X006837Y022510D01*
X006837Y022397D01*
X006678Y022397D02*
X006678Y022510D01*
X006337Y022510D01*
X006337Y022397D01*
X006394Y022265D02*
X006337Y022208D01*
X006337Y022095D01*
X006394Y022038D01*
X006621Y022265D01*
X006678Y022208D01*
X006678Y022095D01*
X006621Y022038D01*
X006394Y022038D01*
X006451Y021896D02*
X006337Y021783D01*
X006678Y021783D01*
X006678Y021896D02*
X006678Y021670D01*
X006678Y021528D02*
X006678Y021415D01*
X006337Y021415D01*
X006337Y021528D01*
X006837Y021528D02*
X006837Y021415D01*
X007178Y021415D01*
X007178Y021528D01*
X007121Y020914D02*
X007178Y020858D01*
X007178Y020744D01*
X007121Y020687D01*
X007008Y020687D01*
X006951Y020744D01*
X006951Y020801D01*
X007008Y020914D01*
X006837Y020914D01*
X006837Y020687D01*
X006837Y020546D02*
X007064Y020546D01*
X007178Y020433D01*
X007064Y020319D01*
X006837Y020319D01*
X006678Y020433D02*
X006564Y020319D01*
X006337Y020319D01*
X006337Y020546D02*
X006564Y020546D01*
X006678Y020433D01*
X006621Y020687D02*
X006678Y020744D01*
X006678Y020858D01*
X006621Y020914D01*
X006508Y020914D02*
X006451Y020801D01*
X006451Y020744D01*
X006508Y020687D01*
X006621Y020687D01*
X006508Y020914D02*
X006337Y020914D01*
X006337Y020687D01*
X007337Y020687D02*
X007337Y020914D01*
X007508Y020914D01*
X007451Y020801D01*
X007451Y020744D01*
X007508Y020687D01*
X007621Y020687D01*
X007678Y020744D01*
X007678Y020858D01*
X007621Y020914D01*
X007837Y020844D02*
X007894Y020901D01*
X008121Y020901D01*
X008178Y020844D01*
X008178Y020731D01*
X008121Y020674D01*
X008008Y020674D01*
X008008Y020788D01*
X007894Y020674D02*
X007837Y020731D01*
X007837Y020844D01*
X007837Y020533D02*
X008178Y020306D01*
X007837Y020306D01*
X007837Y020164D02*
X007837Y019994D01*
X007894Y019937D01*
X008121Y019937D01*
X008178Y019994D01*
X008178Y020164D01*
X007837Y020164D01*
X007678Y020433D02*
X007564Y020319D01*
X007337Y020319D01*
X007337Y020546D02*
X007564Y020546D01*
X007678Y020433D01*
X007837Y020533D02*
X008178Y020533D01*
X008337Y020533D02*
X008337Y020362D01*
X008394Y020306D01*
X008621Y020306D01*
X008678Y020362D01*
X008678Y020533D01*
X008337Y020533D01*
X008394Y020674D02*
X008337Y020731D01*
X008337Y020844D01*
X008394Y020901D01*
X008451Y020901D01*
X008508Y020844D01*
X008508Y020731D01*
X008564Y020674D01*
X008621Y020674D01*
X008678Y020731D01*
X008678Y020844D01*
X008621Y020901D01*
X008678Y020164D02*
X008451Y020164D01*
X008337Y020051D01*
X008451Y019937D01*
X008678Y019937D01*
X008508Y019937D02*
X008508Y020164D01*
X008678Y019247D02*
X008337Y019247D01*
X008337Y019134D01*
X008178Y019134D02*
X008178Y019247D01*
X007837Y019247D01*
X007837Y019134D01*
X007894Y019001D02*
X007837Y018945D01*
X007837Y018831D01*
X007894Y018775D01*
X008121Y019001D01*
X008178Y018945D01*
X008178Y018831D01*
X008121Y018775D01*
X007894Y018775D01*
X007894Y018633D02*
X007951Y018633D01*
X008008Y018576D01*
X008008Y018406D01*
X008121Y018406D02*
X007894Y018406D01*
X007837Y018463D01*
X007837Y018576D01*
X007894Y018633D01*
X007678Y018576D02*
X007621Y018633D01*
X007564Y018633D01*
X007508Y018576D01*
X007508Y018463D01*
X007564Y018406D01*
X007621Y018406D01*
X007678Y018463D01*
X007678Y018576D01*
X007508Y018576D02*
X007451Y018633D01*
X007394Y018633D01*
X007337Y018576D01*
X007337Y018463D01*
X007394Y018406D01*
X007451Y018406D01*
X007508Y018463D01*
X007678Y018265D02*
X007678Y018151D01*
X007337Y018151D01*
X007337Y018265D01*
X007178Y018265D02*
X007178Y018151D01*
X006837Y018151D01*
X006837Y018265D01*
X006837Y018406D02*
X006894Y018406D01*
X007121Y018633D01*
X007178Y018633D01*
X007121Y018775D02*
X007178Y018831D01*
X007178Y018945D01*
X007121Y019001D01*
X006894Y018775D01*
X007121Y018775D01*
X007337Y018831D02*
X007337Y018945D01*
X007394Y019001D01*
X007621Y019001D01*
X007394Y018775D01*
X007621Y018775D01*
X007678Y018831D01*
X007678Y018945D01*
X007621Y019001D01*
X007678Y019134D02*
X007678Y019247D01*
X007337Y019247D01*
X007337Y019134D01*
X007178Y019134D02*
X007178Y019247D01*
X006837Y019247D01*
X006837Y019134D01*
X006894Y019001D02*
X006837Y018945D01*
X006837Y018831D01*
X006894Y018775D01*
X006837Y018633D02*
X006837Y018406D01*
X006678Y018463D02*
X006621Y018406D01*
X006564Y018406D01*
X006508Y018463D01*
X006508Y018633D01*
X006621Y018633D01*
X006678Y018576D01*
X006678Y018463D01*
X006678Y018265D02*
X006678Y018151D01*
X006337Y018151D01*
X006337Y018265D01*
X006337Y018406D02*
X006394Y018520D01*
X006508Y018633D01*
X006621Y018775D02*
X006678Y018831D01*
X006678Y018945D01*
X006621Y019001D01*
X006394Y018775D01*
X006621Y018775D01*
X006621Y019001D02*
X006394Y019001D01*
X006337Y018945D01*
X006337Y018831D01*
X006394Y018775D01*
X006337Y019134D02*
X006337Y019247D01*
X006678Y019247D01*
X006678Y019134D01*
X006894Y019001D02*
X007121Y019001D01*
X007337Y018831D02*
X007394Y018775D01*
X007894Y019001D02*
X008121Y019001D01*
X008337Y018888D02*
X008678Y018888D01*
X008678Y019001D02*
X008678Y018775D01*
X008621Y018633D02*
X008678Y018576D01*
X008678Y018463D01*
X008621Y018406D01*
X008394Y018406D01*
X008621Y018633D01*
X008394Y018633D01*
X008337Y018576D01*
X008337Y018463D01*
X008394Y018406D01*
X008337Y018265D02*
X008337Y018151D01*
X008678Y018151D01*
X008678Y018265D01*
X008621Y017651D02*
X008678Y017594D01*
X008678Y017481D01*
X008621Y017424D01*
X008564Y017424D01*
X008508Y017481D01*
X008508Y017538D01*
X008508Y017481D02*
X008451Y017424D01*
X008394Y017424D01*
X008337Y017481D01*
X008337Y017594D01*
X008394Y017651D01*
X008178Y017594D02*
X008178Y017481D01*
X008121Y017424D01*
X008064Y017424D01*
X008008Y017481D01*
X008008Y017538D01*
X008008Y017481D02*
X007951Y017424D01*
X007894Y017424D01*
X007837Y017481D01*
X007837Y017594D01*
X007894Y017651D01*
X007678Y017594D02*
X007678Y017481D01*
X007621Y017424D01*
X007508Y017424D01*
X007508Y017538D01*
X007621Y017651D02*
X007394Y017651D01*
X007337Y017594D01*
X007337Y017481D01*
X007394Y017424D01*
X007337Y017283D02*
X007678Y017056D01*
X007337Y017056D01*
X007337Y016914D02*
X007337Y016744D01*
X007394Y016687D01*
X007621Y016687D01*
X007678Y016744D01*
X007678Y016914D01*
X007337Y016914D01*
X007178Y016914D02*
X007178Y016687D01*
X007178Y016914D02*
X006837Y016914D01*
X006894Y017056D02*
X006837Y017112D01*
X006837Y017226D01*
X006894Y017283D01*
X007121Y017283D01*
X007178Y017226D01*
X007178Y017112D01*
X007121Y017056D01*
X007337Y017283D02*
X007678Y017283D01*
X007837Y017283D02*
X008064Y017283D01*
X008178Y017169D01*
X008064Y017056D01*
X007837Y017056D01*
X007894Y016914D02*
X007837Y016858D01*
X007837Y016744D01*
X007894Y016687D01*
X007951Y016687D01*
X008008Y016744D01*
X008064Y016687D01*
X008121Y016687D01*
X008178Y016744D01*
X008178Y016858D01*
X008121Y016914D01*
X008008Y016801D02*
X008008Y016744D01*
X008337Y016744D02*
X008337Y016858D01*
X008394Y016914D01*
X008337Y017056D02*
X008564Y017056D01*
X008678Y017169D01*
X008564Y017283D01*
X008337Y017283D01*
X008621Y016914D02*
X008678Y016858D01*
X008678Y016744D01*
X008621Y016687D01*
X008564Y016687D01*
X008508Y016744D01*
X008508Y016801D01*
X008508Y016744D02*
X008451Y016687D01*
X008394Y016687D01*
X008337Y016744D01*
X008178Y017594D02*
X008121Y017651D01*
X007678Y017594D02*
X007621Y017651D01*
X007178Y017594D02*
X007178Y017481D01*
X007121Y017424D01*
X007064Y017424D01*
X007008Y017481D01*
X007008Y017594D01*
X006951Y017651D01*
X006894Y017651D01*
X006837Y017594D01*
X006837Y017481D01*
X006894Y017424D01*
X006678Y017481D02*
X006678Y017594D01*
X006621Y017651D01*
X006394Y017651D01*
X006337Y017594D01*
X006337Y017481D01*
X006394Y017424D01*
X006508Y017424D02*
X006508Y017538D01*
X006508Y017424D02*
X006621Y017424D01*
X006678Y017481D01*
X006678Y017283D02*
X006337Y017283D01*
X006678Y017056D01*
X006337Y017056D01*
X006337Y016914D02*
X006337Y016744D01*
X006394Y016687D01*
X006621Y016687D01*
X006678Y016744D01*
X006678Y016914D01*
X006337Y016914D01*
X007121Y017651D02*
X007178Y017594D01*
X007837Y018151D02*
X007837Y018265D01*
X007837Y018151D02*
X008178Y018151D01*
X008178Y018265D01*
X008121Y018406D02*
X008178Y018463D01*
X008178Y018576D01*
X008121Y018633D01*
X008337Y018888D02*
X008451Y019001D01*
X008678Y019134D02*
X008678Y019247D01*
X008678Y022384D02*
X008678Y022497D01*
X008337Y022497D01*
X008337Y022384D01*
X008178Y022384D02*
X008178Y022497D01*
X007837Y022497D01*
X007837Y022384D01*
X007678Y022397D02*
X007678Y022510D01*
X007337Y022510D01*
X007337Y022397D01*
X006621Y022265D02*
X006394Y022265D01*
D12*
X006108Y022708D02*
X008958Y022708D01*
X008958Y019608D01*
X008958Y016458D01*
X006108Y016458D01*
X006108Y019608D01*
X006108Y022708D01*
X006108Y019608D02*
X008958Y019608D01*
X016743Y019653D02*
X018743Y019653D01*
X018743Y022653D01*
X016743Y022653D01*
X016743Y019653D01*
D13*
X014033Y019958D03*
D14*
X014809Y020993D02*
X014809Y021143D01*
X014809Y021068D02*
X015260Y021068D01*
X015260Y020993D02*
X015260Y021143D01*
X015185Y021299D02*
X015260Y021375D01*
X015260Y021525D01*
X015185Y021600D01*
X015110Y021600D01*
X014809Y021299D01*
X014809Y021600D01*
X014885Y021760D02*
X014809Y021835D01*
X014809Y021985D01*
X014885Y022060D01*
X014885Y021760D02*
X015185Y021760D01*
X015260Y021835D01*
X015260Y021985D01*
X015185Y022060D01*
X016776Y019433D02*
X016701Y019358D01*
X017001Y019058D01*
X016926Y018983D01*
X016776Y018983D01*
X016701Y019058D01*
X016701Y019358D01*
X016776Y019433D02*
X016926Y019433D01*
X017001Y019358D01*
X017001Y019058D01*
X017162Y019058D02*
X017162Y019358D01*
X017237Y019433D01*
X017462Y019433D01*
X017462Y018983D01*
X017237Y018983D01*
X017162Y019058D01*
X017237Y018683D02*
X017462Y018683D01*
X017462Y018233D01*
X017237Y018233D01*
X017162Y018308D01*
X017162Y018608D01*
X017237Y018683D01*
X017001Y018533D02*
X016851Y018683D01*
X016851Y018233D01*
X017001Y018233D02*
X016701Y018233D01*
X016776Y017933D02*
X016926Y017933D01*
X017001Y017858D01*
X017162Y017858D02*
X017237Y017933D01*
X017462Y017933D01*
X017462Y017483D01*
X017237Y017483D01*
X017162Y017558D01*
X017162Y017858D01*
X016776Y017933D02*
X016701Y017858D01*
X016701Y017783D01*
X017001Y017483D01*
X016701Y017483D01*
X016776Y016933D02*
X016701Y016858D01*
X016701Y016783D01*
X016776Y016708D01*
X016701Y016633D01*
X016701Y016558D01*
X016776Y016483D01*
X016926Y016483D01*
X017001Y016558D01*
X017162Y016558D02*
X017237Y016483D01*
X017462Y016483D01*
X017462Y016933D01*
X017237Y016933D01*
X017162Y016858D01*
X017162Y016558D01*
X017001Y016858D02*
X016926Y016933D01*
X016776Y016933D01*
X016776Y016708D02*
X016851Y016708D01*
X016776Y015933D02*
X017001Y015708D01*
X016701Y015708D01*
X016776Y015483D02*
X016776Y015933D01*
X017162Y015858D02*
X017162Y015558D01*
X017237Y015483D01*
X017462Y015483D01*
X017462Y015933D01*
X017237Y015933D01*
X017162Y015858D01*
X017622Y015858D02*
X017622Y015558D01*
X017697Y015483D01*
X017922Y015483D01*
X017922Y015933D01*
X017697Y015933D01*
X017622Y015858D01*
X018082Y015783D02*
X018082Y015483D01*
X018082Y015708D02*
X018383Y015708D01*
X018383Y015783D02*
X018233Y015933D01*
X018082Y015783D01*
X018383Y015783D02*
X018383Y015483D01*
X018233Y014933D02*
X018082Y014783D01*
X018082Y014483D01*
X017922Y014483D02*
X017697Y014483D01*
X017622Y014558D01*
X017622Y014858D01*
X017697Y014933D01*
X017922Y014933D01*
X017922Y014483D01*
X018082Y014708D02*
X018383Y014708D01*
X018383Y014783D02*
X018233Y014933D01*
X018383Y014783D02*
X018383Y014483D01*
X017462Y014483D02*
X017237Y014483D01*
X017162Y014558D01*
X017162Y014858D01*
X017237Y014933D01*
X017462Y014933D01*
X017462Y014483D01*
X017001Y014558D02*
X016926Y014483D01*
X016776Y014483D01*
X016701Y014558D01*
X016701Y014708D01*
X016776Y014783D01*
X016851Y014783D01*
X017001Y014708D01*
X017001Y014933D01*
X016701Y014933D01*
X017697Y016483D02*
X017622Y016558D01*
X017622Y016858D01*
X017697Y016933D01*
X017922Y016933D01*
X017922Y016483D01*
X017697Y016483D01*
X018082Y016483D02*
X018082Y016783D01*
X018233Y016933D01*
X018383Y016783D01*
X018383Y016483D01*
X018383Y016708D02*
X018082Y016708D01*
X018082Y017483D02*
X018082Y017783D01*
X018233Y017933D01*
X018383Y017783D01*
X018383Y017483D01*
X018383Y017708D02*
X018082Y017708D01*
X017922Y017933D02*
X017922Y017483D01*
X017697Y017483D01*
X017622Y017558D01*
X017622Y017858D01*
X017697Y017933D01*
X017922Y017933D01*
X017922Y018233D02*
X017697Y018233D01*
X017622Y018308D01*
X017622Y018608D01*
X017697Y018683D01*
X017922Y018683D01*
X017922Y018233D01*
X018082Y018233D02*
X018082Y018533D01*
X018233Y018683D01*
X018383Y018533D01*
X018383Y018233D01*
X018383Y018458D02*
X018082Y018458D01*
X018082Y018983D02*
X018082Y019283D01*
X018233Y019433D01*
X018383Y019283D01*
X018383Y018983D01*
X018383Y019208D02*
X018082Y019208D01*
X017922Y019433D02*
X017922Y018983D01*
X017697Y018983D01*
X017622Y019058D01*
X017622Y019358D01*
X017697Y019433D01*
X017922Y019433D01*
X019018Y020989D02*
X019018Y021140D01*
X019018Y021065D02*
X019468Y021065D01*
X019468Y021140D02*
X019468Y020989D01*
X019393Y021296D02*
X019093Y021296D01*
X019018Y021371D01*
X019018Y021522D01*
X019093Y021597D01*
X019093Y021757D02*
X019018Y021832D01*
X019018Y021982D01*
X019093Y022057D01*
X019168Y022057D01*
X019243Y021982D01*
X019243Y021832D01*
X019318Y021757D01*
X019393Y021757D01*
X019468Y021832D01*
X019468Y021982D01*
X019393Y022057D01*
X019468Y022217D02*
X019018Y022217D01*
X019168Y022217D02*
X019168Y022442D01*
X019243Y022517D01*
X019393Y022517D01*
X019468Y022442D01*
X019468Y022217D01*
X019393Y021597D02*
X019468Y021522D01*
X019468Y021371D01*
X019393Y021296D01*
D15*
X014034Y022968D02*
X014034Y025218D01*
X013034Y025218D02*
X013034Y022968D01*
X012034Y022968D02*
X012034Y025218D01*
X011034Y025218D02*
X011034Y022968D01*
X010034Y022968D02*
X010034Y025218D01*
D16*
X010034Y022818D03*
X011034Y022818D03*
X012034Y022818D03*
X013034Y022818D03*
X014034Y022818D03*
D17*
X014034Y021518D03*
X013034Y021518D03*
X012034Y021518D03*
X011034Y021518D03*
X010034Y021518D03*
D18*
X010034Y020468D03*
X011034Y020468D03*
X012034Y020468D03*
X013034Y020468D03*
X014034Y020468D03*
D19*
X009738Y011448D02*
X009278Y011448D01*
X009178Y010908D01*
X008748Y010728D02*
X008288Y011038D01*
X007968Y010718D01*
X008278Y010268D01*
X008088Y009828D02*
X007558Y009728D01*
X007558Y009278D01*
X008078Y009178D01*
X008258Y008718D02*
X007968Y008288D01*
X008288Y007968D01*
X008708Y008248D01*
X008888Y008148D01*
X009218Y008948D01*
X009788Y008948D02*
X010118Y008148D01*
X010298Y008248D01*
X010718Y007958D01*
X011048Y008288D01*
X010748Y008718D01*
X010938Y009178D02*
X011458Y009278D01*
X011458Y009728D01*
X010928Y009828D01*
X010738Y010268D02*
X011048Y010718D01*
X010718Y011038D01*
X010268Y010728D01*
X009838Y010908D02*
X009738Y011448D01*
X010738Y010268D02*
X010774Y010210D01*
X010807Y010149D01*
X010838Y010087D01*
X010865Y010024D01*
X010889Y009960D01*
X010910Y009894D01*
X010928Y009828D01*
X010268Y010728D02*
X010210Y010761D01*
X010151Y010791D01*
X010090Y010818D01*
X010029Y010842D01*
X009966Y010864D01*
X009902Y010883D01*
X009838Y010898D01*
X009178Y010898D02*
X009104Y010879D01*
X009032Y010856D01*
X008961Y010829D01*
X008891Y010799D01*
X008824Y010765D01*
X008758Y010728D01*
X009218Y008948D02*
X009176Y008972D01*
X009137Y009000D01*
X009100Y009031D01*
X009065Y009065D01*
X009033Y009101D01*
X009005Y009140D01*
X008979Y009181D01*
X008957Y009224D01*
X008939Y009269D01*
X008924Y009315D01*
X008912Y009362D01*
X008905Y009409D01*
X008901Y009457D01*
X008902Y009506D01*
X008906Y009554D01*
X008914Y009601D01*
X008926Y009648D01*
X008941Y009694D01*
X008960Y009738D01*
X008983Y009781D01*
X009009Y009822D01*
X009038Y009860D01*
X009070Y009896D01*
X009105Y009930D01*
X009143Y009960D01*
X009182Y009987D01*
X009224Y010012D01*
X009268Y010032D01*
X009313Y010049D01*
X009359Y010063D01*
X009407Y010072D01*
X009455Y010078D01*
X009503Y010080D01*
X009551Y010078D01*
X009599Y010072D01*
X009647Y010063D01*
X009693Y010049D01*
X009738Y010032D01*
X009782Y010012D01*
X009824Y009987D01*
X009863Y009960D01*
X009901Y009930D01*
X009936Y009896D01*
X009968Y009860D01*
X009997Y009822D01*
X010023Y009781D01*
X010046Y009738D01*
X010065Y009694D01*
X010080Y009648D01*
X010092Y009601D01*
X010100Y009554D01*
X010104Y009506D01*
X010105Y009457D01*
X010101Y009409D01*
X010094Y009362D01*
X010082Y009315D01*
X010067Y009269D01*
X010049Y009224D01*
X010027Y009181D01*
X010001Y009140D01*
X009973Y009101D01*
X009941Y009065D01*
X009906Y009031D01*
X009869Y009000D01*
X009830Y008972D01*
X009788Y008948D01*
X008258Y008717D02*
X008223Y008779D01*
X008190Y008842D01*
X008161Y008907D01*
X008136Y008973D01*
X008113Y009040D01*
X008094Y009108D01*
X008078Y009178D01*
X010748Y008717D02*
X010783Y008779D01*
X010816Y008842D01*
X010845Y008907D01*
X010870Y008973D01*
X010893Y009040D01*
X010912Y009108D01*
X010928Y009178D01*
X008278Y010268D02*
X008242Y010209D01*
X008209Y010149D01*
X008179Y010087D01*
X008152Y010024D01*
X008127Y009960D01*
X008106Y009894D01*
X008088Y009828D01*
D20*
X012941Y010841D03*
X013641Y011274D03*
X015274Y011241D03*
X016141Y008824D03*
X016124Y008791D03*
X016124Y008774D03*
X014391Y007841D03*
D21*
X014383Y007858D03*
X013233Y009308D03*
X013233Y009358D03*
X013233Y009408D03*
X013233Y009858D03*
X013233Y009908D03*
X013233Y009958D03*
X013233Y010008D03*
D22*
X014383Y007874D03*
D23*
X014383Y007891D03*
D24*
X014374Y007908D03*
D25*
X014374Y007924D03*
D26*
X014383Y007941D03*
D27*
X014808Y007958D03*
X014358Y009758D03*
X016008Y010708D03*
D28*
X015224Y010458D03*
X013324Y011158D03*
X013958Y007958D03*
D29*
X013874Y007974D03*
X013491Y008841D03*
X014358Y009724D03*
X014174Y009924D03*
X015291Y011224D03*
X016208Y010324D03*
X016224Y010291D03*
X016224Y010274D03*
X016241Y010241D03*
X016241Y010224D03*
X016291Y009241D03*
X016141Y008841D03*
X015891Y008391D03*
X015908Y008374D03*
X014891Y007974D03*
X012491Y009941D03*
X012508Y010024D03*
D30*
X012549Y010091D03*
X012666Y010391D03*
X012933Y010791D03*
X014083Y010091D03*
X014083Y010074D03*
X015066Y010374D03*
X016016Y010624D03*
X016233Y010191D03*
X016316Y009691D03*
X016133Y008874D03*
X015849Y008474D03*
X014949Y007991D03*
D31*
X013808Y007991D03*
X012508Y009924D03*
X016008Y010641D03*
D32*
X016216Y010158D03*
X014999Y008008D03*
X013649Y008958D03*
D33*
X013758Y008008D03*
X016008Y010608D03*
D34*
X015699Y010924D03*
X015399Y011141D03*
X014966Y010291D03*
X014949Y010274D03*
X014916Y010241D03*
X014899Y010224D03*
X014866Y010191D03*
X014849Y010174D03*
X014816Y010141D03*
X014799Y010124D03*
X014766Y010091D03*
X014749Y010074D03*
X014716Y010041D03*
X014699Y010024D03*
X014666Y009991D03*
X014649Y009974D03*
X014616Y009941D03*
X014599Y009924D03*
X014116Y009424D03*
X014066Y009374D03*
X014016Y009324D03*
X013966Y009274D03*
X013916Y009224D03*
X013866Y009174D03*
X013816Y009124D03*
X013416Y008591D03*
X013666Y008041D03*
X015049Y008024D03*
D35*
X016124Y008891D03*
X014991Y010324D03*
X015691Y010941D03*
X016008Y010591D03*
X014174Y009974D03*
X014158Y009991D03*
X014174Y009491D03*
X014158Y009474D03*
X013791Y009091D03*
X013774Y009074D03*
X013741Y009041D03*
X013724Y009024D03*
X013691Y008991D03*
X013674Y008974D03*
X013708Y008024D03*
X012541Y009891D03*
D36*
X013191Y010991D03*
X013241Y011024D03*
X014141Y010024D03*
X014591Y009441D03*
X014641Y009391D03*
X014691Y009341D03*
X015091Y008041D03*
X015474Y011091D03*
D37*
X015124Y008058D03*
D38*
X013633Y008058D03*
X012616Y010108D03*
X013166Y010958D03*
X013216Y011008D03*
X015299Y010858D03*
X015999Y010558D03*
D39*
X016258Y009641D03*
X016108Y008941D03*
X015158Y008074D03*
X013558Y008091D03*
X013158Y011241D03*
D40*
X013124Y010924D03*
X013591Y011441D03*
X012691Y010324D03*
X013591Y008074D03*
X015191Y010641D03*
X016241Y009874D03*
X016241Y009391D03*
D41*
X015941Y008691D03*
X015908Y008641D03*
X015874Y008591D03*
X015858Y008574D03*
X015974Y008324D03*
X015191Y008091D03*
X015224Y008824D03*
X015124Y008924D03*
X015091Y008991D03*
X015058Y009024D03*
X015041Y009041D03*
X015191Y010674D03*
X015224Y010791D03*
X015324Y010891D03*
X015724Y010874D03*
X015758Y010841D03*
X015774Y010824D03*
X015808Y010774D03*
X015991Y010524D03*
X015824Y011124D03*
X015424Y011391D03*
X014974Y011541D03*
X014508Y011591D03*
X014508Y011624D03*
X014041Y011591D03*
X014041Y011574D03*
X013574Y011474D03*
X012808Y010941D03*
X012924Y010691D03*
X012891Y010641D03*
X012874Y010624D03*
X012858Y010591D03*
X012841Y010574D03*
X013474Y008141D03*
D42*
X013366Y008208D03*
X013399Y009458D03*
X013399Y009508D03*
X013399Y009558D03*
X013399Y009758D03*
X013399Y009808D03*
X013916Y010208D03*
X013966Y010158D03*
X013999Y010108D03*
X014766Y009308D03*
X014816Y009258D03*
X015116Y008958D03*
X015666Y009458D03*
X015666Y009508D03*
X015666Y009558D03*
X015666Y009608D03*
X015666Y009658D03*
X015666Y009708D03*
X015666Y009758D03*
X015666Y009808D03*
X015999Y010508D03*
X016116Y010758D03*
X015949Y008708D03*
X015916Y008658D03*
X015216Y008108D03*
X012666Y010158D03*
X012699Y010258D03*
D43*
X012583Y009858D03*
X012933Y010708D03*
X013583Y011458D03*
X015133Y008908D03*
X015183Y008858D03*
X016183Y010108D03*
X013533Y008108D03*
D44*
X013324Y008241D03*
X013424Y008541D03*
X012591Y009624D03*
X012591Y009641D03*
X012591Y009674D03*
X012591Y009691D03*
X012591Y009724D03*
X012591Y009741D03*
X012591Y009774D03*
X012591Y009791D03*
X012591Y009824D03*
X012591Y009841D03*
X012674Y010191D03*
X012691Y010241D03*
X013124Y011291D03*
X014024Y011641D03*
X014991Y011591D03*
X015441Y011424D03*
X015191Y010741D03*
X015191Y010724D03*
X015191Y010691D03*
X016024Y010441D03*
X016091Y008991D03*
X016091Y008974D03*
X015324Y008691D03*
X015291Y008741D03*
X014991Y009074D03*
X014974Y009091D03*
X014941Y009124D03*
X014924Y009141D03*
X014891Y009174D03*
X014874Y009191D03*
X014841Y009224D03*
X014824Y009241D03*
X013974Y010141D03*
X015241Y008124D03*
X015274Y008141D03*
D45*
X015199Y008841D03*
X015166Y008874D03*
X015149Y008891D03*
X013549Y008791D03*
X013499Y008124D03*
X012916Y010674D03*
X014049Y011541D03*
X014499Y011574D03*
X014966Y011524D03*
X015416Y011374D03*
X015316Y010874D03*
X015266Y010824D03*
X015716Y010891D03*
X015999Y010541D03*
D46*
X016016Y010458D03*
X016066Y010358D03*
X015199Y010758D03*
X013849Y010258D03*
X013799Y010308D03*
X013749Y010358D03*
X013699Y010408D03*
X013649Y010458D03*
X013599Y010508D03*
X012983Y009458D03*
X012616Y009408D03*
X012599Y009508D03*
X012599Y009558D03*
X013133Y008408D03*
X013183Y008358D03*
X015283Y008158D03*
X015349Y008658D03*
X015316Y008708D03*
X016099Y009008D03*
X016116Y009058D03*
X016133Y009108D03*
D47*
X016174Y009158D03*
X016091Y008958D03*
X016224Y009408D03*
X015891Y008608D03*
X015074Y009008D03*
X015191Y010658D03*
X015741Y010858D03*
X015824Y010758D03*
X014508Y011608D03*
X012874Y010608D03*
X012841Y010558D03*
X013441Y008158D03*
D48*
X013108Y008441D03*
X013058Y008491D03*
X012908Y008691D03*
X012708Y009074D03*
X012658Y009224D03*
X012658Y009241D03*
X012608Y009474D03*
X014508Y011724D03*
X016208Y009591D03*
X016208Y009574D03*
X016208Y009541D03*
X016208Y009524D03*
X016208Y009491D03*
X016208Y009474D03*
X016208Y009441D03*
X015358Y008641D03*
X015358Y008224D03*
X015308Y008174D03*
D49*
X015266Y008774D03*
X015249Y008791D03*
X015116Y008941D03*
X015099Y008974D03*
X014799Y009274D03*
X014749Y009324D03*
X015666Y009474D03*
X015666Y009491D03*
X015666Y009524D03*
X015666Y009541D03*
X015666Y009574D03*
X015666Y009591D03*
X015666Y009624D03*
X015666Y009641D03*
X015666Y009674D03*
X015666Y009691D03*
X015666Y009724D03*
X015666Y009741D03*
X015666Y009774D03*
X015666Y009791D03*
X015666Y009824D03*
X015666Y009841D03*
X015799Y010791D03*
X013949Y010174D03*
X013399Y009841D03*
X013399Y009824D03*
X013399Y009791D03*
X013399Y009774D03*
X013399Y009741D03*
X013399Y009541D03*
X013399Y009524D03*
X013399Y009491D03*
X013399Y009474D03*
X012666Y010174D03*
X012699Y010274D03*
X012699Y010291D03*
X013566Y011491D03*
X015899Y008624D03*
X013416Y008174D03*
X013399Y008191D03*
X013349Y008224D03*
D50*
X013124Y008424D03*
X013074Y008474D03*
X013024Y008524D03*
X012991Y008574D03*
X012974Y008591D03*
X012941Y008641D03*
X012874Y008741D03*
X012841Y008791D03*
X012824Y008824D03*
X012791Y008891D03*
X012774Y008924D03*
X012741Y008991D03*
X012724Y009041D03*
X012691Y009124D03*
X012674Y009174D03*
X012674Y009191D03*
X012641Y009274D03*
X012641Y009291D03*
X012641Y009324D03*
X012624Y009341D03*
X012624Y009374D03*
X012624Y009391D03*
X012974Y009474D03*
X012974Y009491D03*
X012974Y009524D03*
X012974Y009774D03*
X012974Y009791D03*
X012974Y009824D03*
X013574Y010541D03*
X013974Y010124D03*
X013574Y008774D03*
X015374Y008624D03*
X015324Y008191D03*
X016141Y009141D03*
X016191Y009891D03*
X016191Y009924D03*
X016191Y009941D03*
X016174Y009974D03*
X016174Y009991D03*
X016174Y010024D03*
X015241Y009491D03*
X015241Y009474D03*
D51*
X015241Y009458D03*
X015374Y008608D03*
X015341Y008208D03*
X015991Y008308D03*
X016191Y009908D03*
X016191Y009958D03*
X016174Y010008D03*
X013541Y011558D03*
X012791Y010958D03*
X012974Y009808D03*
X012974Y009508D03*
X012624Y009358D03*
X012641Y009308D03*
X012924Y008658D03*
X013041Y008508D03*
X013091Y008458D03*
D52*
X013016Y008541D03*
X012949Y008624D03*
X012916Y008674D03*
X012849Y008774D03*
X012816Y008841D03*
X012799Y008874D03*
X012766Y008941D03*
X012749Y008974D03*
X012699Y009091D03*
X012966Y009541D03*
X012966Y009574D03*
X012966Y009741D03*
X013566Y010574D03*
X013549Y010591D03*
X013516Y010624D03*
X014016Y011691D03*
X014516Y011741D03*
X014999Y011641D03*
X015499Y010591D03*
X016349Y010341D03*
X015399Y008574D03*
X015416Y008524D03*
X015366Y008241D03*
D53*
X015383Y008258D03*
X015233Y009508D03*
X015233Y009558D03*
X013533Y010608D03*
X012533Y010558D03*
X012683Y009158D03*
X012733Y009008D03*
X012783Y008908D03*
X012833Y008808D03*
D54*
X013308Y008258D03*
X014858Y009208D03*
X014908Y009158D03*
X014958Y009108D03*
X015008Y009058D03*
X014508Y011658D03*
X013558Y011508D03*
D55*
X013333Y010791D03*
X016033Y008274D03*
D56*
X015408Y008291D03*
X015391Y008274D03*
X015424Y008491D03*
X015408Y008541D03*
X015224Y009574D03*
X013574Y008741D03*
X013541Y008641D03*
X013524Y008624D03*
X013424Y008524D03*
X012774Y010974D03*
X014008Y011724D03*
X014508Y011774D03*
X015008Y011674D03*
D57*
X014999Y011624D03*
X015449Y011441D03*
X015833Y011141D03*
X015999Y010491D03*
X016033Y010424D03*
X016049Y010391D03*
X016049Y010374D03*
X016066Y010341D03*
X016166Y010074D03*
X016166Y010041D03*
X016199Y009424D03*
X016133Y009124D03*
X016133Y009091D03*
X016116Y009074D03*
X016116Y009041D03*
X016099Y009024D03*
X015333Y008674D03*
X013883Y010224D03*
X013866Y010241D03*
X013833Y010274D03*
X013816Y010291D03*
X013783Y010324D03*
X013766Y010341D03*
X013733Y010374D03*
X013716Y010391D03*
X013683Y010424D03*
X013666Y010441D03*
X013633Y010474D03*
X013616Y010491D03*
X013583Y010524D03*
X012983Y009841D03*
X012599Y009591D03*
X012599Y009574D03*
X012599Y009541D03*
X012599Y009524D03*
X012599Y009491D03*
X012616Y009441D03*
X012616Y009424D03*
X013149Y008391D03*
X013166Y008374D03*
X013199Y008341D03*
X013216Y008324D03*
X013283Y008274D03*
X013549Y011541D03*
X014016Y011674D03*
X014516Y011691D03*
D58*
X014016Y011741D03*
X013116Y011324D03*
X013316Y008791D03*
X013299Y008774D03*
X013299Y008624D03*
X013566Y008691D03*
X013566Y008724D03*
X015416Y008324D03*
X016016Y008291D03*
D59*
X015308Y008724D03*
X016008Y010474D03*
X015208Y010774D03*
X014508Y011641D03*
X014508Y011674D03*
X013558Y011524D03*
X012658Y010141D03*
X012658Y010124D03*
X013258Y008291D03*
D60*
X015758Y008308D03*
X014058Y011758D03*
D61*
X014199Y010108D03*
X013566Y008708D03*
X013549Y008658D03*
X015416Y008308D03*
D62*
X015274Y008758D03*
X016041Y010408D03*
X015191Y010708D03*
X014991Y011608D03*
X014024Y011658D03*
X012591Y009808D03*
X012591Y009758D03*
X012591Y009708D03*
X012591Y009658D03*
X012591Y009608D03*
X013241Y008308D03*
D63*
X014591Y009324D03*
X015758Y008324D03*
X015574Y010674D03*
X013291Y010841D03*
D64*
X013183Y010974D03*
X013149Y010941D03*
X012933Y010724D03*
X012816Y010924D03*
X013416Y008574D03*
X015199Y010624D03*
X015283Y010841D03*
X015799Y011091D03*
X016199Y010124D03*
X016116Y008924D03*
X015849Y008541D03*
X015966Y008341D03*
D65*
X015758Y008341D03*
X012758Y010991D03*
D66*
X015533Y010624D03*
X015433Y008474D03*
X015433Y008441D03*
X015433Y008374D03*
X015433Y008341D03*
D67*
X015849Y008458D03*
X015916Y008358D03*
X016299Y009258D03*
X016299Y009308D03*
X014366Y009708D03*
X013299Y011108D03*
D68*
X015433Y008458D03*
X015433Y008358D03*
D69*
X015441Y008391D03*
X015441Y008424D03*
X013474Y010641D03*
D70*
X012516Y010058D03*
X012499Y010008D03*
X012499Y009958D03*
X014399Y009658D03*
X015866Y008408D03*
D71*
X015441Y008408D03*
X013291Y008758D03*
D72*
X014358Y009741D03*
X013308Y011124D03*
X015858Y008424D03*
X016008Y010674D03*
D73*
X015849Y008441D03*
X012516Y010041D03*
X012516Y010074D03*
X012499Y009991D03*
X012499Y009974D03*
X012649Y010424D03*
D74*
X013608Y008924D03*
X014108Y010041D03*
X014458Y011541D03*
X015858Y008491D03*
D75*
X015858Y008508D03*
X016274Y009358D03*
X014974Y010308D03*
X015374Y011158D03*
X013274Y011058D03*
X012674Y010358D03*
X013808Y009108D03*
X013758Y009058D03*
X013708Y009008D03*
X013424Y008608D03*
D76*
X015424Y008508D03*
X016258Y008708D03*
X015524Y010608D03*
X015841Y011158D03*
X015458Y011458D03*
X014508Y011758D03*
D77*
X013258Y011041D03*
X012558Y009874D03*
X014608Y009424D03*
X014658Y009374D03*
X015858Y008524D03*
X016258Y009374D03*
X016208Y010141D03*
X016008Y010574D03*
D78*
X015708Y010908D03*
X014508Y011558D03*
X015858Y008558D03*
D79*
X015399Y008558D03*
X013566Y008758D03*
X012999Y008558D03*
X012966Y008608D03*
X012899Y008708D03*
X012866Y008758D03*
X012716Y009058D03*
X012699Y009108D03*
X012666Y009208D03*
X012966Y009558D03*
X012966Y009758D03*
X013566Y010558D03*
X013116Y011308D03*
X014016Y011708D03*
X014999Y011658D03*
X015349Y010908D03*
D80*
X015249Y010808D03*
X015399Y011358D03*
X014966Y011508D03*
X015816Y011108D03*
X014049Y011558D03*
X013149Y011258D03*
X012899Y010658D03*
X012699Y010308D03*
X013416Y008558D03*
D81*
X012883Y008724D03*
X012733Y009024D03*
X012683Y009141D03*
X013533Y011574D03*
X015233Y009541D03*
X015233Y009524D03*
X015383Y008591D03*
X016133Y010774D03*
D82*
X016166Y010791D03*
X015849Y011174D03*
X015549Y010641D03*
X014199Y010124D03*
X013449Y010674D03*
X013433Y010691D03*
X013399Y010724D03*
X013549Y011591D03*
X013283Y008741D03*
X013283Y008691D03*
X013283Y008674D03*
X013283Y008641D03*
D83*
X013283Y008658D03*
X013266Y008708D03*
X013466Y010658D03*
X013416Y010708D03*
D84*
X013133Y011274D03*
X014033Y011624D03*
X014983Y011574D03*
X013933Y010191D03*
X014783Y009291D03*
X015933Y008674D03*
X016233Y009624D03*
X016183Y010091D03*
X012683Y010224D03*
D85*
X013558Y008674D03*
X015458Y011474D03*
D86*
X015666Y011024D03*
X016016Y010691D03*
X015133Y010391D03*
X014399Y009641D03*
X013683Y011291D03*
X012683Y010524D03*
X012666Y010491D03*
X012666Y010474D03*
X012649Y010441D03*
X016099Y008741D03*
X016099Y008724D03*
D87*
X013274Y008724D03*
X013391Y010741D03*
X014991Y011691D03*
D88*
X012649Y010458D03*
X016116Y008758D03*
D89*
X016141Y008808D03*
X015674Y011008D03*
D90*
X015783Y010808D03*
X015433Y011408D03*
X014983Y011558D03*
X014033Y011608D03*
X012683Y010208D03*
X015233Y008808D03*
D91*
X014174Y009908D03*
X013508Y008858D03*
X013474Y008808D03*
X012658Y010408D03*
X013608Y011258D03*
X016008Y010658D03*
X016208Y010308D03*
X016224Y010258D03*
X016241Y010208D03*
D92*
X016333Y009724D03*
X016283Y009224D03*
X016283Y009191D03*
X015683Y010991D03*
X014383Y009691D03*
X013533Y008874D03*
X013483Y008824D03*
D93*
X016141Y008858D03*
X016324Y009758D03*
X016324Y009808D03*
D94*
X016208Y009608D03*
X016208Y009558D03*
X016208Y009508D03*
X016208Y009458D03*
X016158Y010058D03*
X014508Y011708D03*
X012608Y009458D03*
X012658Y009258D03*
X012758Y008958D03*
X012808Y008858D03*
D95*
X013549Y008891D03*
X014399Y009674D03*
X013566Y011241D03*
X016299Y009324D03*
X016299Y009291D03*
X016299Y009274D03*
D96*
X016116Y008908D03*
X014149Y009458D03*
X014099Y009408D03*
X014049Y009358D03*
X013999Y009308D03*
X013949Y009258D03*
X013899Y009208D03*
X013849Y009158D03*
X014149Y010008D03*
D97*
X014099Y010058D03*
X013583Y008908D03*
X015299Y011208D03*
D98*
X014583Y009474D03*
X013633Y008941D03*
X013333Y009574D03*
X013333Y009591D03*
X013333Y009624D03*
X013333Y009641D03*
X013333Y009674D03*
X013333Y009691D03*
X013333Y009724D03*
D99*
X015141Y009058D03*
X015441Y011508D03*
D100*
X015433Y011124D03*
X014133Y009441D03*
X014083Y009391D03*
X014033Y009341D03*
X013983Y009291D03*
X013933Y009241D03*
X013883Y009191D03*
X013833Y009141D03*
X012683Y010341D03*
X012933Y010741D03*
D101*
X012924Y010774D03*
X013274Y011074D03*
X012674Y010374D03*
X014574Y009491D03*
X015674Y009874D03*
X015674Y009891D03*
X015674Y009924D03*
X015674Y009941D03*
X015674Y009974D03*
X015674Y009991D03*
X016224Y010174D03*
X016291Y009341D03*
X016241Y009174D03*
D102*
X016283Y009208D03*
X016333Y009708D03*
X012933Y010808D03*
D103*
X015508Y009441D03*
X015508Y009424D03*
X015508Y009391D03*
X015508Y009374D03*
X015508Y009341D03*
X015508Y009324D03*
X015508Y009291D03*
D104*
X013816Y011341D03*
X013233Y009991D03*
X013233Y009974D03*
X013233Y009941D03*
X013233Y009924D03*
X013233Y009891D03*
X013233Y009874D03*
X013233Y009441D03*
X013233Y009424D03*
X013233Y009391D03*
X013233Y009374D03*
X013233Y009341D03*
X013233Y009324D03*
X013233Y009291D03*
D105*
X015508Y009308D03*
X015508Y009358D03*
X015508Y009408D03*
D106*
X016274Y009658D03*
X014674Y009358D03*
X014624Y009408D03*
D107*
X014583Y009458D03*
X014583Y009908D03*
X014633Y009958D03*
X014683Y010008D03*
X014733Y010058D03*
X014783Y010108D03*
X014833Y010158D03*
X014883Y010208D03*
X014933Y010258D03*
X016283Y009858D03*
D108*
X014383Y009508D03*
D109*
X014391Y009524D03*
X013391Y011224D03*
D110*
X014341Y009824D03*
X014391Y009541D03*
D111*
X014391Y009558D03*
X014341Y009808D03*
D112*
X014391Y009574D03*
D113*
X014399Y009591D03*
D114*
X014399Y009608D03*
X015266Y010508D03*
X015299Y010558D03*
X015649Y011058D03*
D115*
X015033Y010358D03*
X013333Y009708D03*
X013333Y009658D03*
X013333Y009608D03*
X012933Y010758D03*
D116*
X014399Y009624D03*
X015666Y011041D03*
D117*
X015349Y011174D03*
X015316Y011191D03*
X015216Y010591D03*
X015016Y010341D03*
X016299Y009674D03*
D118*
X016324Y009741D03*
X016324Y009774D03*
X016324Y009791D03*
X016324Y009824D03*
X016324Y009841D03*
X015691Y010974D03*
X014174Y009941D03*
X013291Y011091D03*
D119*
X012941Y010874D03*
X014358Y009774D03*
X015191Y010424D03*
X015208Y010441D03*
X015241Y010474D03*
X015274Y010524D03*
X015308Y010574D03*
D120*
X014358Y009791D03*
D121*
X014333Y009841D03*
D122*
X014174Y009958D03*
X012524Y009908D03*
X015674Y009908D03*
X015674Y009958D03*
X015674Y010008D03*
X015674Y009858D03*
X015691Y010958D03*
D123*
X014333Y009858D03*
D124*
X014341Y009874D03*
X014341Y009891D03*
X015141Y011324D03*
D125*
X013949Y010024D03*
D126*
X014199Y010141D03*
X013349Y010774D03*
X013299Y010824D03*
X013116Y011341D03*
X015449Y011491D03*
X015849Y011191D03*
D127*
X015249Y011258D03*
X015166Y010408D03*
D128*
X015249Y010491D03*
D129*
X012941Y010858D03*
X012674Y010508D03*
D130*
X015283Y010541D03*
D131*
X015974Y010741D03*
X015991Y010724D03*
X013324Y011141D03*
X012691Y010541D03*
D132*
X015208Y010608D03*
X015458Y011108D03*
D133*
X015566Y010658D03*
X013366Y010758D03*
X013316Y010808D03*
D134*
X013283Y010858D03*
X016183Y010808D03*
D135*
X012933Y010824D03*
D136*
X012941Y010891D03*
X013341Y011174D03*
X013774Y011324D03*
X015224Y011274D03*
X015641Y011074D03*
D137*
X012949Y010908D03*
D138*
X013349Y011191D03*
D139*
X013374Y011208D03*
D140*
X015208Y011291D03*
D141*
X015174Y011308D03*
D142*
X013733Y011308D03*
D143*
X015091Y011341D03*
D144*
X014841Y011358D03*
D145*
X013908Y011358D03*
D146*
X013116Y011358D03*
D147*
X014324Y011374D03*
D148*
X014308Y011391D03*
D149*
X014291Y011408D03*
D150*
X014283Y011424D03*
D151*
X014433Y011441D03*
D152*
X014458Y011458D03*
D153*
X014483Y011474D03*
D154*
X014508Y011491D03*
D155*
X014349Y011508D03*
D156*
X014299Y011524D03*
D157*
X013558Y011608D03*
M02*
